<?xml version="1.0" encoding="UTF-8"?>
<svg id="Layer_1" xmlns="http://www.w3.org/2000/svg" xmlns:xlink="http://www.w3.org/1999/xlink" viewBox="0 0 94.18 68.79">
  <defs>
    <style>
      .cls-1 {
        fill: url(#grad);
      }
    </style>
    <linearGradient id="grad" x1="47.1" y1="19.65" x2="47.1" y2="1.21" gradientTransform="translate(0 70) scale(1 -1)" gradientUnits="userSpaceOnUse">
      <stop offset="0" stop-color="#f99d7c"/>
      <stop offset="1" stop-color="#a3a692"/>
    </linearGradient>
  </defs>
  <path d="M94.14,22.6L88.38.87c-.09-.35-.34-.63-.66-.77-.33-.14-.7-.13-1.02.04l-6.83,3.65c-1.27-1.82-3.37-2.96-5.63-2.96-1.02,0-2,.22-2.92.66-1.65.78-2.91,2.16-3.52,3.88-.21.6-.34,1.22-.38,1.84l-2.75.87c-1.05.33-2.94.48-4.03.32l-11.78-1.73c-1.6-.23-3.78.33-5.06,1.31l-2.68,2.05h-11.5l-2.82-1.97c.05-.9-.08-1.8-.39-2.68-.62-1.72-1.87-3.1-3.52-3.88-.93-.44-1.91-.66-2.92-.66-2.26,0-4.36,1.14-5.63,2.96L7.48.14c-.32-.17-.69-.18-1.02-.04s-.57.43-.66.77L.04,22.6c-.09.35-.02.72.2,1l2.88,3.82c-.44,1.41-.42,2.92.09,4.34.62,1.72,1.87,3.1,3.52,3.88.92.44,1.91.66,2.92.66,1.14,0,2.23-.3,3.2-.82l1.18.36c.35,1.04,1.18,3.04,2.58,4.45l-.88.88c-1.83,1.84-1.84,4.82,0,6.65.89.89,2.07,1.38,3.33,1.38.64,0,1.25-.12,1.82-.37.16.95.61,1.83,1.3,2.52.89.89,2.07,1.38,3.33,1.38.74,0,1.46-.18,2.1-.5.18.88.6,1.72,1.28,2.4.89.89,2.07,1.38,3.32,1.38.49,0,.97-.08,1.42-.22.13,1.04.59,1.99,1.34,2.74.89.89,2.07,1.38,3.32,1.38s2.38-.47,3.26-1.31l5.01,3.77c.9.68,1.96,1,3.01,1,1.52,0,3.03-.69,4.02-2,.66-.88,1-1.93,1-3.01.45.13.91.21,1.39.21.24,0,.48-.02.72-.05,1.33-.19,2.5-.88,3.31-1.95.65-.86.97-1.87,1-2.87.55.2,1.13.31,1.71.31.24,0,.48-.02.71-.05,1.33-.19,2.5-.88,3.3-1.95.71-.94,1.06-2.07,1-3.23.31.06.62.1.94.1.24,0,.48-.02.71-.05,1.32-.19,2.5-.88,3.3-1.95.81-1.07,1.15-2.39.96-3.72-.06-.41-.17-.8-.32-1.18,3.46-1.85,4.9-4.72,5.38-5.97l2.06-.74s.06-.03.09-.04c1.08.68,2.35,1.07,3.67,1.07,1.02,0,2-.22,2.92-.66,1.65-.78,2.91-2.16,3.52-3.88.51-1.42.53-2.93.09-4.34l2.88-3.82c.21-.29.29-.66.2-1h.01ZM7.68,2.9l5.54,2.96L4.2,24.97l-1.74-2.31L7.68,2.9ZM9.64,33.96c-.67,0-1.31-.14-1.92-.43-1.09-.52-1.91-1.42-2.32-2.55-.41-1.13-.35-2.36.17-3.45L15.86,5.75c.74-1.57,2.34-2.58,4.08-2.58.67,0,1.31.14,1.92.43,1.09.52,1.91,1.42,2.32,2.55s.35,2.36-.17,3.45l-10.29,21.78c-.31.66-.78,1.21-1.33,1.63-.32.04-.62.23-.8.5-.6.29-1.26.45-1.94.45h0ZM17.38,46.18c-.92-.92-.92-2.41,0-3.34l1.43-1.43c.29-.09.55-.28.71-.57.04-.07.07-.15.09-.23l.76-.76c.45-.45,1.04-.69,1.67-.69s1.22.25,1.66.69c.92.92.92,2.42,0,3.34l-2.99,2.99c-.89.89-2.45.89-3.34,0h.01ZM25.5,50.41c-.63,0-1.22-.25-1.67-.69s-.69-1.04-.69-1.66.25-1.23.69-1.67l5.48-5.48c.45-.45,1.04-.69,1.67-.69s1.22.25,1.67.7c.92.92.92,2.41,0,3.34l-1.53,1.53-2.24,2.24h-.01l-1.7,1.71c-.45.45-1.04.69-1.67.69h0v-.02ZM30.54,53c-.91-.92-.92-2.41-.02-3.32l3-3c.45-.45,1.04-.69,1.66-.69s1.22.25,1.67.69c.45.45.69,1.04.69,1.66s-.25,1.22-.69,1.67l-1.89,1.89h0l-1.08,1.09c-.89.89-2.44.89-3.33,0h0ZM38.29,57.58c-.63,0-1.22-.25-1.67-.69-.45-.45-.69-1.04-.69-1.67s.25-1.21.69-1.66l1.43-1.43c.45-.45,1.04-.69,1.67-.69s1.22.25,1.66.69c.92.92.92,2.42,0,3.34l-1.43,1.42c-.45.45-1.04.69-1.67.69h0ZM70.82,45.48c-.43.57-1.05.94-1.76,1.04-.71.1-1.41-.08-1.98-.51l-18.8-14.17c-.52-.39-1.25-.29-1.64.23-.39.52-.29,1.25.23,1.64l17.43,13.13.02.02c.57.43.94,1.05,1.04,1.76s-.08,1.41-.51,1.98-1.05.94-1.76,1.04c-.71.1-1.41-.08-1.97-.5l-15.23-11.79c-.51-.39-1.25-.3-1.64.21s-.3,1.25.21,1.64l12.92,10c.06.08.13.15.21.21,1.18.89,1.42,2.57.54,3.74-.43.57-1.06.94-1.77,1.04-.7.1-1.41-.08-1.96-.5l-5.09-3.98c-.51-.4-1.25-.31-1.64.2s-.31,1.25.2,1.64l3.09,2.41c.06.08.13.16.22.23.57.43.94,1.06,1.04,1.77.1.71-.08,1.41-.51,1.98-.89,1.18-2.57,1.41-3.75.53l-4.76-3.58c1.65-1.85,1.61-4.69-.16-6.46-.86-.86-2-1.34-3.21-1.37.04-.25.07-.5.07-.77,0-1.26-.49-2.44-1.38-3.32-.8-.8-1.86-1.28-2.98-1.36.36-1.54-.04-3.22-1.23-4.41-.89-.89-2.07-1.38-3.33-1.38s-2.44.49-3.32,1.38l-1.1,1.09c-.2-.78-.59-1.53-1.2-2.14-.89-.89-2.07-1.37-3.32-1.37s-2.44.49-3.33,1.38l-.45.45c-1.17-1.18-1.94-3.22-2.16-4.05-.11-.39-.4-.69-.79-.81l-.3-.09c.32-.41.62-.84.84-1.32l10.29-21.78s.03-.08.05-.12l2.38,1.67c.2.14.43.21.67.21h8.8l-4.12,3.14c-1.22.93-2.5,2.82-2.91,4.3l-1.98,7.15c-.5,1.8.51,3.84,2.25,4.53.02,0,.54.21,1.35.21,1.5,0,3.97-.71,5.82-4.73l2.53-1.79c.86-.61,2.54-1.1,3.57-1.12l4.79.02c.47.27,1.48.81,2.92,1.37-.04.37.09.76.4,1.02l17.59,15.22s.04.04.06.05c.57.43.94,1.05,1.04,1.75.11.71-.08,1.42-.51,1.99h0l-.02.05ZM77.39,34c-.36.13-.64.43-.74.81,0,.04-.93,3.39-4.71,5.26-.07-.06-.14-.12-.21-.18l-15.24-13.19c1.61.34,3.42.57,5.41.57,1.38,0,2.84-.11,4.36-.37.64-.11,1.07-.71.96-1.35-.11-.64-.71-1.07-1.35-.96-8.86,1.5-15.51-2.63-15.59-2.68-.02-.02-.05-.02-.07-.04l-.12-.06s-.07-.02-.11-.04c-.04-.01-.07-.02-.11-.03-.04,0-.09-.01-.13-.02h-.08l-5.11-.02h-.02c-1.52,0-3.68.68-4.91,1.55l-2.8,1.98c-.18.12-.31.29-.4.49-1.89,4.36-4.21,3.61-4.29,3.59-.64-.26-1.04-1.06-.86-1.73l1.98-7.15c.28-1,1.24-2.43,2.07-3.06l9.88-7.54c.77-.59,2.34-.99,3.3-.86l11.78,1.73c1.45.21,3.68.04,5.07-.41l2.31-.73c.1.35.22.69.38,1.02l10.29,21.78c.18.38.4.72.63,1.05l-1.58.56v.03ZM88.77,30.98c-.41,1.13-1.23,2.04-2.32,2.55-.61.29-1.25.43-1.92.43-1.73,0-3.34-1.01-4.08-2.58l-10.29-21.78c-.25-.53-.39-1.09-.42-1.65v-.02c-.03-.59.05-1.19.26-1.77.41-1.13,1.23-2.04,2.32-2.55.61-.29,1.25-.43,1.92-.43,1.73,0,3.34,1.01,4.08,2.58l10.29,21.78c.52,1.09.57,2.31.17,3.45h-.01ZM89.98,24.97l-9.03-19.1,5.54-2.96,5.23,19.75s-1.74,2.31-1.74,2.31Z"/>
  <path class="cls-1" d="M76.94,50.47c-.58-.29-1.29-.04-1.57.54-.29.58-.04,1.29.54,1.57,2.96,1.44,4.59,3.05,4.59,4.52,0,4.43-13.72,9.36-33.41,9.36s-33.41-4.93-33.41-9.36c0-1.3,1.3-2.75,3.68-4.05.57-.31.77-1.03.46-1.59-.31-.57-1.02-.77-1.59-.46-3.25,1.79-4.89,3.84-4.89,6.11,0,7.6,18.42,11.7,35.76,11.7s35.76-4.1,35.76-11.7c0-2.49-1.98-4.72-5.9-6.62h0l-.02-.02Z"/>
</svg>