<?xml version="1.0" encoding="UTF-8"?>
<svg id="Layer_1" xmlns="http://www.w3.org/2000/svg" xmlns:xlink="http://www.w3.org/1999/xlink" viewBox="0 0 92 78">
  <defs>
    <style>
      .cls-1 {
        fill: url(#grad);
      }

      .cls-2 {
        fill: #fff;
      }
    </style>
    <linearGradient id="grad" x1="38.48" y1="19.99" x2="38.48" y2="51.96" gradientUnits="userSpaceOnUse">
      <stop offset="0" stop-color="#f99d7c"/>
      <stop offset="1" stop-color="#a3a692"/>
    </linearGradient>
  </defs>
  <g id="svg_1">
    <path id="svg_2" class="cls-2" d="M27,0C18.63,0,11.79,2.4,7.09,7.09,2.4,11.79,0,18.64,0,27c0,6.07,2.99,12.12,7.25,17.91,4.26,5.79,9.87,11.32,15.44,16.16,11.14,9.68,22.25,16.62,22.25,16.62.65.41,1.48.41,2.12,0,0,0,11.11-6.95,22.25-16.62,5.57-4.84,11.18-10.37,15.44-16.16,4.26-5.79,7.25-11.84,7.25-17.91,0-8.36-2.4-15.21-7.09-19.91S73.37,0,65,0c-9.37,0-15.77,5.53-19,9.03C42.77,5.53,36.37,0,27,0ZM5.97,35c-1.26-2.79-1.97-5.51-1.97-8,0-7.61,2.1-13.28,5.91-17.09s9.48-5.91,17.09-5.91c9.04,0,15.35,6.68,17.44,9.25.69.86,1.95,1,2.81.31.12-.09.22-.2.31-.31,2.09-2.57,8.4-9.25,17.44-9.25,7.62,0,13.28,2.09,17.09,5.91s5.91,9.49,5.91,17.09c0,4.71-2.51,10.14-6.5,15.56s-9.38,10.78-14.81,15.5c-10.01,8.7-19.18,14.54-20.69,15.5-1.51-.96-10.68-6.8-20.69-15.5-5.43-4.72-10.82-10.08-14.81-15.5-.88-1.2-1.68-2.37-2.41-3.56"/>
  </g>
  <g id="svg_1-2" data-name="svg_1">
    <path id="svg_2-2" data-name="svg_2" class="cls-1" d="M8.09,39h21.66l5.44,11.81c.47,1,1.66,1.43,2.66.96.48-.22.85-.62,1.03-1.12l8.22-23.06,4.06,10.12c.29.76,1.02,1.27,1.84,1.28h6.34c.83,2.32,3.07,4,5.66,4,3.29,0,6-2.71,6-6s-2.71-6-6-6c-2.59,0-4.82,1.68-5.66,4h-5l-5.5-13.75c-.33-.83-1.17-1.34-2.06-1.25-.76.09-1.4.6-1.66,1.31l-8.38,23.41-3.94-8.56c-.33-.7-1.03-1.16-1.81-1.16H5.97M65,35c1.13,0,2,.87,2,2s-.87,2-2,2c-1.06,0-1.88-.78-1.97-1.81,0-.14,0-.27-.03-.41.11-1.02.95-1.78,2-1.78Z"/>
  </g>
</svg>