<?xml version="1.0" encoding="UTF-8"?>
<svg id="Layer_1" xmlns="http://www.w3.org/2000/svg" xmlns:xlink="http://www.w3.org/1999/xlink" viewBox="0 0 46.2 46.2">
  <defs>
    <style>
      .cls-1 {
        fill: url(#grad);
      }

      .cls-2, .cls-3 {
        fill: #fff;
      }

      .cls-3 {
        stroke: #fff;
        stroke-linecap: round;
        stroke-miterlimit: 10;
        stroke-width: 2px;
      }
    </style>
    <linearGradient id="grad" x1="23.1" y1="47.89" x2="23.1" y2="1.9" gradientTransform="translate(0 48) scale(1 -1)" gradientUnits="userSpaceOnUse">
      <stop offset="0" stop-color="#f99d7c"/>
      <stop offset="1" stop-color="#a3a692"/>
    </linearGradient>
  </defs>
  <g>
    <path class="cls-1" d="M45.11,44.1h-1.01V1.11c0-.55-.45-1-1-1h-7c-.55,0-1,.45-1,1h0v42.99h-2v-28c0-.55-.45-1-1-1h-7c-.55,0-1,.45-1,1h0v28h-2v-17c0-.55-.45-1-1-1h-7c-.55,0-1,.45-1,1h0v17h-2v-8c0-.55-.45-1-1-1H3.1c-.55,0-1,.45-1,1h0v8h-1c-.55,0-1,.44-1,1s.44,1,1,1h44.01c.55,0,1-.44,1-1s-.44-1-1-1ZM9.1,44.1h-5v-7h5v7ZM20.1,44.1h-5v-16h5v16ZM31.1,44.1h-5v-27h5v27ZM42.1,44.1h-5V2.11h5s0,41.99,0,41.99Z"/>
    <path class="cls-2" d="M23.67,1.28c-.09-.37-.38-.66-.75-.75-5.58-1.31-11.45.37-15.49,4.44l-.76.76-4.83.44C.79,6.27,0,7.2.11,8.26c.04.45.24.87.55,1.18l3.39,3.39-2.43,8.52c-.15.53.16,1.08.69,1.24.18.05.37.05.55,0l8.52-2.43,3.39,3.39c.36.36.84.56,1.35.56.99,0,1.83-.76,1.92-1.75l.44-4.83.76-.76c4.07-4.04,5.75-9.91,4.44-15.49h-.01ZM2.2,8.15s2.02-.18,3.49-.32l-.95,2.86s-2.54-2.54-2.54-2.54ZM4.04,20.17l1.63-5.72,4.09,4.09s-5.72,1.63-5.72,1.63ZM16.06,22l-2.54-2.54,2.86-.95s-.32,3.49-.32,3.49ZM17.82,15.36l-.85.85-5.03,1.68-5.62-5.61,1.68-5.03.85-.85c3.4-3.42,8.27-4.93,13.01-4.04.9,4.74-.62,9.61-4.04,13.01h0ZM16.21,4.24c-1,0-1.95.4-2.65,1.1-1.45,1.49-1.43,3.88.07,5.33.69.68,1.62,1.06,2.59,1.07,2.07,0,3.75-1.68,3.75-3.75s-1.68-3.75-3.75-3.75h-.01ZM16.21,9.75c-.46,0-.91-.18-1.24-.51-.68-.7-.66-1.82.04-2.5.32-.31.75-.49,1.2-.5.97,0,1.75.79,1.75,1.75s-.79,1.75-1.75,1.75h0Z"/>
  </g>
  <line class="cls-3" x1="1.14" y1="45.01" x2="45.09" y2="45.01"/>
</svg>