<?xml version="1.0" encoding="UTF-8"?>
<svg id="Layer_1" xmlns="http://www.w3.org/2000/svg" xmlns:xlink="http://www.w3.org/1999/xlink" viewBox="0 0 90 90">
  <defs>
    <style>
      .cls-1 {
        fill: url(#grad);
      }

      .cls-2 {
        fill: #fff;
      }
    </style>
    <linearGradient id="grad" x1="44.57" y1="62.64" x2="44.57" y2="22.2" gradientTransform="translate(0 92) scale(1 -1)" gradientUnits="userSpaceOnUse">
      <stop offset="0" stop-color="#f99d7c"/>
      <stop offset="1" stop-color="#a3a692"/>
    </linearGradient>
  </defs>
  <path class="cls-2" d="M44.57,49.24c5.48,0,9.94-4.46,9.94-9.94s-4.46-9.94-9.94-9.94-9.94,4.46-9.94,9.94,4.46,9.94,9.94,9.94ZM44.57,32.11c3.97,0,7.19,3.23,7.19,7.19s-3.23,7.19-7.19,7.19-7.19-3.23-7.19-7.19,3.23-7.19,7.19-7.19ZM66.84,44.78c-.76,0-1.37.61-1.37,1.37,0,5.98-2.47,11.49-6.83,15.44-2.01-5.95-7.61-10.07-14.07-10.07s-12.06,4.12-14.07,10.07c-4.36-3.95-6.83-9.47-6.83-15.44,0-.76-.61-1.37-1.37-1.37s-1.37.61-1.37,1.37c0,7.44,3.56,14.53,9.53,18.97,4.1,3.06,8.98,4.68,14.11,4.68.64,0,1.28-.03,1.91-.07.71-.06,1.42-.15,2.12-.27,3.02-.52,5.9-1.61,8.51-3.25.54-.34,1.06-.7,1.57-1.08h0c5.97-4.44,9.53-11.53,9.53-18.97,0-.76-.62-1.37-1.37-1.37h0ZM42.93,66.99c-.18-.01-.35-.04-.53-.06-.36-.04-.73-.07-1.08-.13-.21-.03-.41-.08-.62-.12-.32-.06-.65-.12-.97-.19-.22-.05-.43-.11-.64-.17-.3-.08-.61-.17-.91-.26-.22-.07-.43-.15-.65-.23-.29-.1-.58-.21-.86-.32-.22-.09-.43-.18-.64-.28-.28-.12-.55-.25-.83-.39-.21-.11-.42-.22-.63-.33-.26-.14-.53-.29-.79-.45-.21-.12-.41-.25-.61-.39-.12-.08-.24-.17-.37-.25,1.34-5.35,6.16-9.14,11.76-9.14s10.42,3.79,11.76,9.14c-.12.08-.24.17-.37.25-.2.13-.41.26-.62.39-.26.16-.52.31-.78.45-.21.12-.42.23-.64.34-.27.14-.54.26-.81.39-.22.1-.43.19-.65.29-.28.11-.57.22-.85.32-.22.08-.44.16-.66.23-.3.1-.6.18-.9.26-.22.06-.43.12-.65.18-.32.07-.64.13-.96.19-.21.04-.42.09-.63.12-.36.06-.72.09-1.08.13-.18.02-.35.05-.53.06-.54.04-1.09.07-1.64.07s-1.09-.03-1.64-.07l.02-.03ZM78.02,21.58l-5.88-.85-2.63-5.33c-.23-.47-.71-.76-1.23-.76s-1,.3-1.23.76l-2.63,5.33-1.05.15c-2.86-2.14-6-3.74-9.37-4.8l4.45-4.34c.37-.36.51-.91.35-1.41s-.59-.86-1.11-.93l-8.21-1.19-3.67-7.44c-.23-.47-.7-.76-1.23-.76s-1,.3-1.23.76l-3.67,7.44-8.21,1.19c-.52.07-.95.44-1.11.93-.16.5-.03,1.04.35,1.41l4.44,4.33c-3.31,1.04-6.4,2.62-9.22,4.7l-.33-.05-2.63-5.33c-.23-.47-.71-.76-1.23-.76s-1,.3-1.23.76l-2.63,5.33-5.88.85c-.52.08-.95.44-1.11.93-.16.5-.03,1.04.35,1.41l4.26,4.15-1,5.86c-.09.51.12,1.03.55,1.34.01,0,.02,0,.03.02-1.25,3.43-1.89,7.04-1.89,10.74,0,14.34,9.62,26.78,23.45,30.39.28,1.43-.81,6.62-2.5,11.78-.2.6.04,1.25.58,1.59.23.14.48.21.73.21.35,0,.69-.13.95-.39,6.14-5.92,13.28-12.34,14.52-12.82,14.53-2.97,25.08-15.91,25.08-30.77,0-3.63-.61-7.15-1.8-10.51.29,0,.57-.08.81-.25.42-.31.63-.83.55-1.34l-1-5.86,4.26-4.15c.37-.36.51-.91.35-1.41s-.59-.86-1.11-.93l-.04.02ZM40.77,10.82c.45-.06.83-.35,1.03-.75l2.76-5.59,2.76,5.59c.2.4.59.69,1.03.75l6.17.9-4.47,4.35c-.32.32-.47.77-.4,1.22l1.06,6.15-5.52-2.9c-.2-.1-.42-.16-.64-.16s-.44.05-.64.16l-5.52,2.9,1.06-6.15c.08-.44-.07-.9-.4-1.22l-4.47-4.35,6.17-.9h.02ZM15.13,23.89l3.85-.56c.45-.07.83-.35,1.03-.75l1.72-3.49,1.72,3.49c.2.41.59.69,1.03.75l3.85.56-2.78,2.71c-.32.32-.47.77-.4,1.21l.66,3.83-3.44-1.81c-.4-.21-.88-.21-1.28,0l-3.44,1.81.66-3.83c.08-.44-.07-.9-.4-1.21,0,0-2.78-2.71-2.78-2.71ZM50.34,74.11c-1.6.33-7.32,5.44-12.16,9.99.93-3.58,1.65-7.61.77-9.21-.29-.53-.76-.9-1.31-1.04-12.8-3.18-21.73-14.61-21.73-27.82,0-3.93.78-7.74,2.33-11.33.04-.1.07-.2.09-.3l3.41-1.79,5.26,2.77c.2.1.42.16.64.16.28,0,.57-.09.81-.26.42-.31.63-.83.55-1.34l-1.01-5.86,4.26-4.15c.37-.36.51-.91.35-1.41s-.59-.86-1.11-.93l-1.49-.22c2.03-1.21,4.2-2.15,6.48-2.82l-1.23,7.17c-.09.51.12,1.03.55,1.34.24.17.52.26.81.26.22,0,.44-.05.64-.16l7.34-3.86,7.34,3.86c.46.24,1.02.2,1.44-.1.42-.31.63-.83.55-1.34l-1.23-7.18c2.35.69,4.58,1.67,6.67,2.93l-.8.12c-.52.08-.95.44-1.11.93-.16.5-.03,1.04.35,1.41l4.26,4.15-1.01,5.86c-.09.51.12,1.03.55,1.34.24.17.52.26.81.26.22,0,.44-.05.64-.16l5.26-2.77,2.19,1.15c1.83,3.85,2.76,7.97,2.76,12.27,0,13.56-9.62,25.37-22.88,28.08h-.04ZM72.09,26.6c-.32.32-.47.77-.39,1.21l.66,3.83-3.44-1.81c-.2-.1-.42-.16-.64-.16s-.44.05-.64.16l-3.44,1.81.66-3.83c.08-.44-.07-.9-.39-1.21l-2.78-2.71,3.85-.56c.45-.07.83-.35,1.03-.75l1.72-3.49,1.72,3.49c.2.41.59.69,1.03.75l3.85.56-2.78,2.71h-.02Z"/>
  <path class="cls-1" d="M44.57,49.24c5.48,0,9.94-4.46,9.94-9.94s-4.46-9.94-9.94-9.94-9.94,4.46-9.94,9.94,4.46,9.94,9.94,9.94ZM44.57,32.11c3.97,0,7.19,3.23,7.19,7.19s-3.23,7.19-7.19,7.19-7.19-3.23-7.19-7.19,3.23-7.19,7.19-7.19ZM66.84,44.78c-.76,0-1.37.61-1.37,1.37,0,5.98-2.47,11.49-6.83,15.44-2.01-5.95-7.61-10.07-14.07-10.07s-12.06,4.12-14.07,10.07c-4.36-3.95-6.83-9.47-6.83-15.44,0-.76-.61-1.37-1.37-1.37s-1.37.61-1.37,1.37c0,7.44,3.56,14.53,9.53,18.97,4.1,3.06,8.98,4.68,14.11,4.68.64,0,1.28-.02,1.91-.07.71-.06,1.42-.15,2.12-.27,3.02-.52,5.9-1.61,8.51-3.25.54-.34,1.06-.7,1.57-1.08h0c5.97-4.44,9.53-11.53,9.53-18.97,0-.76-.62-1.37-1.37-1.37h0ZM55.96,63.66c-.2.13-.41.26-.61.39-.26.16-.52.3-.78.45-.21.12-.42.23-.64.34-.27.14-.54.26-.82.39-.22.1-.43.2-.65.28-.28.12-.57.22-.85.32-.22.08-.44.16-.66.23-.3.1-.59.18-.89.26-.22.06-.43.12-.65.17-.32.08-.64.13-.96.19-.21.04-.42.09-.63.12-.36.05-.72.09-1.08.13-.18.02-.35.05-.53.06-.54.04-1.09.07-1.64.07s-1.09-.03-1.64-.07c-.18-.01-.35-.04-.53-.06-.36-.04-.73-.07-1.09-.13-.21-.03-.41-.08-.62-.12-.32-.06-.65-.12-.97-.2-.22-.05-.43-.11-.64-.17-.3-.08-.61-.17-.91-.26-.22-.07-.43-.15-.65-.23-.29-.1-.58-.21-.86-.32-.22-.09-.43-.18-.64-.28-.28-.12-.55-.25-.83-.39-.21-.11-.42-.22-.63-.33-.27-.14-.53-.29-.79-.45-.21-.12-.41-.26-.61-.39-.12-.08-.24-.17-.36-.25,1.34-5.34,6.16-9.14,11.76-9.14s10.42,3.79,11.76,9.14c-.12.08-.24.17-.37.25h0Z"/>
</svg>