<?xml version="1.0" encoding="UTF-8"?>
<svg id="Layer_1" xmlns="http://www.w3.org/2000/svg" xmlns:xlink="http://www.w3.org/1999/xlink" viewBox="0 0 95 95">
  <defs>
    <style>
      .cls-1 {
        fill: url(#grad);
      }

      .cls-2 {
        fill: #fff;
      }
    </style>
    <linearGradient id="grad" x1="35.96" y1="16.01" x2="35.96" y2="53.23" gradientUnits="userSpaceOnUse">
      <stop offset="0" stop-color="#f99d7c"/>
      <stop offset="1" stop-color="#a3a692"/>
    </linearGradient>
  </defs>
  <g>
    <path id="svg_1" class="cls-2" d="M91.78,76.65l-15.02-15.02c-1.44-1.44-3.71-1.55-5.29-.35l-3.5-3.5c-1.27-1.27-1.57-3.26-.71-4.82,7.55-13.85,5.03-31.32-6.14-42.47C54.16,3.53,44.51-.27,34.65.02,24.66.31,15.51,4.63,8.86,12.15c-11.47,13.02-11.85,32.91-.88,46.3,10.95,13.38,29.86,17.09,44.97,8.85,1.55-.85,3.52-.55,4.8.73l3.5,3.5c-1.21,1.57-1.11,3.85.33,5.3l15.02,15.02c2.03,2.03,4.73,3.15,7.59,3.15s5.56-1.12,7.59-3.15c4.2-4.2,4.2-11.02,0-15.19,0,0,0,0,0,0ZM54.83,63.92c-1.12,0-2.24.27-3.27.83-13.9,7.59-31.29,4.17-41.35-8.14C.13,44.31.48,26.01,11.02,14.07c6.11-6.93,14.53-10.9,23.71-11.18,9.17-.29,17.83,3.14,24.35,9.64,10.26,10.26,12.57,26.32,5.64,39.05-1.45,2.68-.97,6.07,1.21,8.24l3.47,3.47-6.15,6.15-3.45-3.45c-1.34-1.34-3.14-2.06-4.96-2.06,0,0,0,0,0,0ZM89.76,89.79c-1.48,1.48-3.45,2.3-5.55,2.3s-4.06-.82-5.55-2.3l-15.02-15.02c-.45-.45-.45-1.18,0-1.62l9.47-9.47c.23-.23.52-.33.82-.33s.59.11.82.33l15.02,15.02c3.05,3.06,3.05,8.03,0,11.09,0,0,0,0,0,0Z"/>
    <path id="svg_2" class="cls-2" d="M35.78,8.68c-7.26,0-14.07,2.82-19.19,7.94-10.59,10.59-10.59,27.81,0,38.4,5.29,5.29,12.24,7.94,19.19,7.94s13.91-2.65,19.19-7.94c10.59-10.59,10.59-27.81,0-38.4-5.12-5.1-11.94-7.94-19.19-7.94ZM52.93,52.98c-9.45,9.45-24.85,9.45-34.32,0s-9.45-24.85,0-34.32c4.57-4.57,10.67-7.09,17.15-7.09s12.57,2.52,17.15,7.09c9.48,9.47,9.48,24.85.01,34.32h0Z"/>
    <path id="svg_4" class="cls-2" d="M84.45,79.75c-2.61,0-4.74,2.12-4.74,4.74s2.12,4.74,4.74,4.74,4.74-2.12,4.74-4.74c-.02-2.62-2.14-4.74-4.74-4.74ZM84.45,86.34c-1.02,0-1.85-.83-1.85-1.85s.83-1.85,1.85-1.85,1.85.83,1.85,1.85-.83,1.85-1.85,1.85Z"/>
  </g>
  <g id="svg_1-2" data-name="svg_1">
    <g id="svg_2-2" data-name="svg_2">
      <path id="svg_3" class="cls-1" d="M35.21,46.31c.41-.22,1.08-.22,1.5,0l7.7,4.05c1.64.86,2.72.08,2.4-1.75l-1.47-8.58c-.08-.46.12-1.09.46-1.43l6.23-6.07c1.33-1.29.91-2.56-.92-2.83l-8.61-1.25c-.46-.07-1-.46-1.21-.88l-3.85-7.8c-.82-1.66-2.15-1.66-2.97,0l-3.85,7.8c-.21.42-.74.81-1.21.88l-8.61,1.25c-1.83.27-2.24,1.53-.92,2.83l6.23,6.07c.33.33.54.96.46,1.43l-1.47,8.58c-.31,1.83.77,2.61,2.4,1.75,0,0,7.7-4.05,7.7-4.05ZM28.68,52.59c-3.49,1.83-6.73-.52-6.06-4.4l1.39-8.11-5.89-5.74c-2.82-2.75-1.59-6.56,2.32-7.13l8.14-1.18,3.64-7.38c1.74-3.53,5.75-3.54,7.49,0l3.64,7.38,8.14,1.18c3.9.57,5.14,4.37,2.32,7.13l-5.89,5.74,1.39,8.11c.67,3.88-2.57,6.24-6.06,4.4l-7.28-3.83s-7.28,3.83-7.28,3.83Z"/>
    </g>
  </g>
</svg>