<?xml version="1.0" encoding="UTF-8"?>
<svg id="Layer_1" xmlns="http://www.w3.org/2000/svg" xmlns:xlink="http://www.w3.org/1999/xlink" viewBox="0 0 86.09 86.63">
  <defs>
    <style>
      .cls-1 {
        fill: #fff;
      }

      .cls-2 {
        fill: url(#New_Gradient_Swatch_1);
      }

      .cls-3 {
        fill: #f0f0f0;
      }
    </style>
    <linearGradient id="New_Gradient_Swatch_1" data-name="New Gradient Swatch 1" x1="64.7" y1=".02" x2="64.7" y2="86.63" gradientUnits="userSpaceOnUse">
      <stop offset="0" stop-color="#a062f9"/>
      <stop offset="1" stop-color="#1a77da"/>
    </linearGradient>
  </defs>
  <path class="cls-2" d="M83.56,51.41l.25-9.51h0c1.4-.51,2.25-1.93,2.05-3.41-.2-1.48-1.41-2.61-2.89-2.73l-2.91-9.43h0c2.15-1.3,2.91-4.06,1.73-6.28s-3.88-3.14-6.16-2.09l-8.16-10.2c.94-1.23,1.23-2.85.77-4.33-.46-1.48-1.6-2.66-3.07-3.15-1.47-.5-3.09-.25-4.35.65s-2.01,2.37-2.01,3.92v.02l-6.34,1.62h0c-.69-1.09-1.89-1.75-3.18-1.76-1.29-.01-2.5.63-3.2,1.71-.7,1.08-.81,2.44-.29,3.62.53,1.18,1.61,2.01,2.89,2.2l.89,5.48h0c-1.82.78-2.99,2.6-2.95,4.58.05,1.98,1.3,3.74,3.16,4.44l-.7,6c-1.52.33-2.66,1.59-2.84,3.13-.18,1.55.66,3.04,2.06,3.7l-1.83,16.47h0c-1.77.34-3.07,1.84-3.17,3.64-.1,1.8,1.04,3.43,2.76,3.96l.04,13.95c-.95.38-1.66,1.2-1.91,2.2s.01,2.05.68,2.82c.67.77,1.67,1.18,2.7,1.08,1.02-.09,1.93-.68,2.45-1.56l8.86,1.32h0c.18,1.07.8,2,1.71,2.58.91.58,2.03.74,3.07.44,1.04-.3,1.9-1.02,2.37-2,.47-.97.5-2.1.09-3.1l6.86-5.83h0c2.13,1.53,5.1,1.03,6.62-1.1s1.03-5.1-1.11-6.62l3.56-9.08c.07,0,.15.01.22.01h0c1.85,0,3.43-1.33,3.74-3.15s-.73-3.6-2.47-4.22h0ZM82.72,38.09h0c.34,0,.64.2.77.52.12.31.05.67-.18.9-.23.24-.59.31-.9.18-.31-.12-.51-.43-.51-.77,0-.46.37-.83.83-.83h0ZM77.58,19.87h0c.97,0,1.85.59,2.22,1.49.38.9.17,1.93-.52,2.62-.69.69-1.73.89-2.62.52-.9-.37-1.49-1.25-1.49-2.22,0-1.33,1.08-2.41,2.41-2.41h0ZM77.58,27.03c.08,0,.16,0,.23-.01l2.91,9.43h0c-.23.19-.43.4-.59.64l-11.57-2.83h0c-.01-.7-.18-1.38-.5-2l6.85-6.05c.79.54,1.72.82,2.67.82h0ZM70.47,48.94h.03c.82,0,1.62-.24,2.3-.7l6.11,5.03c-.15.29-.26.59-.32.91l-8.23,1.62c-.36-.62-.9-1.12-1.55-1.44l1.65-5.41ZM68.72,44.82h0c0-.71.43-1.36,1.1-1.63.66-.28,1.43-.12,1.93.38.51.51.66,1.27.39,1.94-.27.66-.92,1.1-1.64,1.1-.98,0-1.78-.8-1.78-1.78h0ZM70.5,40.7h0c-.37,0-.74.06-1.1.16l-2.1-3.36h0c.27-.29.51-.61.7-.96l11.57,2.83c0,.06.02.12.03.18l-5.96,2.62h0c-.78-.93-1.93-1.46-3.14-1.46h0ZM50.79,58.24l2.89-2.63h0c.55.36,1.18.59,1.83.67l1.24,8.62c-.23.11-.45.23-.65.37l-5.19-4.01h0c.37-.98.32-2.06-.12-3.01h0ZM56.35,22.12l5.02-1.35c.39.62.98,1.11,1.66,1.37l-.16,7.71c-.46.11-.89.29-1.3.54l-5.88-5.73c.44-.74.67-1.59.67-2.45,0-.03,0-.06,0-.09h0ZM64.27,20.04c-.45,0-.85-.27-1.02-.68-.17-.41-.08-.88.24-1.2.31-.31.79-.41,1.2-.24.41.17.68.57.68,1.02,0,.61-.49,1.1-1.1,1.1h0ZM65.38,22.2c.71-.24,1.33-.71,1.75-1.33l5.7,1.43c0,.75.18,1.49.53,2.16l-6.84,6.05h0c-.4-.27-.84-.47-1.3-.6l.16-7.71ZM63.95,32.07c.92,0,1.75.55,2.1,1.4.35.85.16,1.82-.49,2.47-.65.65-1.62.84-2.47.49s-1.4-1.18-1.4-2.09c0-1.25,1.02-2.27,2.27-2.27h0ZM60.9,37.8l-4.82,9.62h-.02,0c-.15,0-.31,0-.46.02l-3.38-8.39h0c.62-.54,1.04-1.27,1.2-2.07l6.27-.87h0c.27.64.69,1.22,1.21,1.68h0ZM59.93,32.07c-.3.53-.49,1.12-.57,1.72l-6.28.87c-.36-.71-.95-1.28-1.67-1.63l.7-6c.69-.09,1.35-.32,1.94-.69l5.88,5.73ZM53.42,48.3h0c-1.75,1.29-2.31,3.66-1.32,5.59l-2.89,2.63c-.13-.08-.26-.15-.4-.21l1.7-15.25,2.91,7.24ZM56.06,53.97h0c-.85,0-1.62-.51-1.95-1.3-.32-.79-.14-1.69.46-2.29.6-.6,1.51-.79,2.29-.46.79.32,1.3,1.09,1.3,1.95,0,1.16-.95,2.1-2.11,2.11h0ZM59.64,54.5l4.02,2.37h0c-.2.97,0,1.98.57,2.79l-3.82,5.14c-.43-.18-.89-.28-1.36-.32l-1.23-8.53h0c.72-.32,1.35-.82,1.81-1.45h0ZM60.49,52.27c.01-.13.02-.27.02-.41h0c0-1.55-.81-2.98-2.14-3.79l4.62-9.23c.77.16,1.57.12,2.32-.11l2.1,3.36c-.79.89-1.16,2.08-1,3.27.16,1.18.82,2.23,1.81,2.89l-1.77,5.8c-.59.13-1.14.4-1.59.79l-4.38-2.58ZM67.22,56.32h0c.52,0,.99.32,1.19.8s.09,1.04-.28,1.4c-.37.37-.92.48-1.4.28-.48-.2-.79-.67-.79-1.19,0-.71.57-1.29,1.29-1.29h0ZM73.79,19.42h0c-.14.19-.28.39-.39.6l-5.7-1.43c-.14-1.38-1.09-2.53-2.41-2.95l-.29-6.18c.21-.06.42-.14.62-.23l8.16,10.2ZM63.62,2.36c1,0,1.91.61,2.29,1.53.39.93.17,2-.54,2.7-.71.71-1.78.92-2.7.54-.93-.39-1.53-1.29-1.53-2.29,0-1.37,1.11-2.48,2.48-2.48h0ZM53.04,8.76l6.34-1.62h0c.68,1.26,1.89,2.15,3.29,2.44l.29,6.18c-.24.1-.46.22-.67.37l-9.39-6.52c.08-.28.13-.56.15-.85h0ZM51.55,11.53l9.4,6.52c-.04.14-.07.29-.09.43l-5.12,1.38h0c-.79-1.42-2.23-2.36-3.85-2.49l-.89-5.48c.2-.1.38-.22.55-.35h0ZM49.26,9.96h0c-.59,0-1.11-.35-1.34-.89-.22-.54-.1-1.16.32-1.58.41-.41,1.04-.54,1.58-.32.54.23.89.75.89,1.34,0,.8-.65,1.45-1.45,1.45h0ZM48.97,22.21c0-1.02.61-1.94,1.55-2.33.94-.39,2.03-.18,2.75.54.72.72.94,1.8.55,2.75-.39.94-1.31,1.56-2.33,1.56-1.39,0-2.52-1.13-2.52-2.52h0ZM49.86,35.02c.52,0,.99.31,1.19.79s.09,1.03-.28,1.4c-.37.37-.92.48-1.4.28s-.8-.67-.8-1.19c0-.71.58-1.29,1.29-1.29h0ZM47.29,81.37c-.34,0-.64-.2-.77-.51-.13-.31-.06-.67.18-.91.23-.24.59-.31.9-.18.31.13.51.43.51.77,0,.46-.37.83-.83.83ZM47.23,61.48c-.64,0-1.21-.39-1.46-.98-.24-.59-.11-1.27.34-1.72s1.13-.59,1.72-.34c.59.25.98.82.98,1.46,0,.88-.71,1.58-1.58,1.58h0ZM48.54,77.63s-.06-.02-.09-.03l-.04-13.95h0c.38-.12.74-.3,1.06-.53l5.09,3.93h0c-.69,1.38-.62,3.03.17,4.36l-6.19,6.22ZM59.24,81.15l-8.86-1.32h0c-.04-.19-.1-.37-.18-.54l6.19-6.22c.7.41,1.5.62,2.31.62h.03l1.76,6.02c-.53.37-.96.86-1.25,1.44h0ZM58.7,71.34h0c-.92,0-1.75-.55-2.1-1.4-.35-.85-.16-1.82.49-2.48.65-.65,1.63-.84,2.47-.49.85.35,1.4,1.18,1.4,2.09,0,1.25-1.02,2.27-2.27,2.27h0ZM62.63,84.29c-.59,0-1.11-.36-1.34-.89-.22-.54-.1-1.17.32-1.58.41-.41,1.04-.54,1.58-.31.54.22.9.75.9,1.34,0,.8-.65,1.45-1.45,1.45h0ZM64.62,79.61h0c-.56-.36-1.21-.55-1.88-.56l-1.75-5.98c.96-.55,1.69-1.43,2.05-2.47l2.04.37,5.92,1.07c.04.61.2,1.2.47,1.75l-6.86,5.83ZM71.42,69.72l-5.86-1.05-2.33-.42c-.14-.75-.46-1.46-.94-2.05l3.82-5.14h0c.32.11.66.16.99.17.04,0,.08,0,.12,0h0c.23,0,.46-.03.68-.07l4.43,7.22h0c-.38.39-.69.84-.91,1.34ZM75.74,74.1c-.97,0-1.85-.59-2.23-1.49-.37-.9-.16-1.93.52-2.62.69-.69,1.73-.89,2.62-.52.9.37,1.49,1.25,1.49,2.22,0,1.33-1.08,2.41-2.41,2.41h0ZM76.33,66.98c-.67-.09-1.36-.03-2,.17l-4.39-7.15h0c.48-.54.78-1.2.88-1.91l8.01-1.58c.24.54.6,1.02,1.06,1.4l-3.56,9.07ZM74.3,46.43c.29-.67.38-1.4.29-2.12l6.32-2.78h0c.18.12.36.22.56.31l-.25,9.5c-.22.07-.43.15-.63.25l-6.29-5.17ZM82.3,56.43c-.59,0-1.12-.35-1.34-.89-.22-.54-.1-1.16.32-1.58.41-.41,1.04-.54,1.58-.31.54.22.89.75.89,1.34,0,.8-.65,1.45-1.45,1.45h0Z"/>
  <path class="cls-3" d="M32.34,0c-4.52-.02-8.46,3.07-9.52,7.47-.04,0-.07-.02-.11-.02-.08-.02-.17-.03-.25-.05-.1-.02-.2-.04-.29-.05-.09-.02-.19-.03-.29-.04-.09-.01-.18-.02-.27-.04-.11-.01-.23-.02-.34-.03-.07,0-.14-.01-.22-.02-.19-.01-.38-.02-.57-.02h0c-5.93,0-10.73,4.81-10.73,10.73,0,.22,0,.44.02.66,0,.12.02.25.04.38,0,.09.02.18.02.27.02.16.04.31.07.46,0,.05.02.11.03.17.03.16.07.32.1.48.01.05.02.1.03.14.01.04.02.08.03.12h0c-3.84,1.43-6.4,5.1-6.43,9.2,0,.21,0,.43.02.64,0,.08.02.16.02.25.01.12.02.25.04.38.01.11.03.21.05.32.02.09.03.18.05.27.02.13.05.26.08.38.01.05.02.1.04.15.18.71.43,1.4.76,2.05C-.08,37.48-1.44,43.93,1.67,48.78c0,.01.01.02.02.04.01.02.02.04.04.05.05.09.12.17.17.25h0c.28.4.58.78.91,1.14.02.03.05.05.07.08.12.13.25.25.37.37l.07.07c.13.12.27.25.41.37.02.02.04.03.05.05.14.12.29.24.45.36,0,0,.02.02.03.02h0c-2.14,2.59-2.8,6.1-1.75,9.29,1.05,3.2,3.66,5.63,6.93,6.45,0,.03,0,.06,0,.09-.03.2-.05.41-.06.61,0,.06-.01.12-.02.18-.02.25-.03.5-.03.75h0c0,6.64,5.39,12.02,12.02,12.02.3,0,.61-.02.91-.04.07,0,.14,0,.2-.02.28-.03.56-.06.84-.11.03,0,.06,0,.09-.01h0c1.87,4.24,6.46,6.6,10.99,5.64,4.54-.95,7.78-4.96,7.79-9.59V9.8C42.14,4.39,37.76,0,32.34,0h0ZM39.8,23.25h-9.87c-3,0-5.43-2.43-5.43-5.43,0-.64-.52-1.17-1.17-1.17s-1.17.53-1.17,1.17c0,4.29,3.48,7.77,7.77,7.77h9.87v13.13h-21.26c-4.29,0-7.77,3.48-7.77,7.77,0,.65.52,1.17,1.17,1.17s1.17-.52,1.17-1.17c0-3,2.43-5.43,5.43-5.43h21.26v35.77c0,3.46-2.39,6.47-5.76,7.26-3.37.79-6.84-.85-8.38-3.95,1.72-.66,3.27-1.71,4.52-3.07.44-.48.41-1.22-.07-1.66-.48-.44-1.22-.41-1.66.07-1.34,1.45-3.09,2.46-5.01,2.89-.05.01-.09.02-.14.03-.1.02-.2.04-.31.06-.09.02-.18.03-.27.04-.09.01-.18.02-.26.04-.12.02-.23.02-.35.04-.07,0-.14.01-.21.02-.19.01-.38.02-.57.02h0c-5.34,0-9.67-4.34-9.68-9.68,0-.18,0-.37.02-.55,0-.04,0-.08,0-.12.01-.14.02-.29.04-.43,0-.04.01-.08.02-.12,0,0,0-.02,0-.03h0c.64-4.82,4.73-8.41,9.59-8.42.64,0,1.17-.52,1.17-1.17s-.53-1.17-1.17-1.17c-5.13,0-9.69,3.26-11.36,8.11-2.54-.64-4.56-2.57-5.31-5.09s-.12-5.23,1.64-7.17c2.64,1.17,5.64,1.21,8.31.11,2.67-1.1,4.77-3.23,5.83-5.92.12-.29.12-.61,0-.9-.12-.29-.36-.51-.65-.63-.29-.11-.62-.11-.9.02-.29.13-.51.36-.62.66-1.09,2.78-3.6,4.75-6.55,5.15-2.96.41-5.9-.82-7.7-3.2h0c-.05-.07-.11-.14-.16-.22-.04-.05-.07-.1-.11-.15-1.22-1.82-1.67-4.05-1.25-6.2s1.69-4.04,3.52-5.25c.87,1.01,1.93,1.83,3.13,2.41.58.29,1.29.04,1.57-.54.29-.58.04-1.29-.54-1.57-1.7-.83-3.03-2.28-3.7-4.05v.02s0,0,0,0c-.12-.32-.22-.65-.3-.98,0-.01,0-.02,0-.03-.04-.16-.06-.32-.09-.48,0-.02,0-.05-.01-.07-.02-.15-.04-.3-.05-.45,0-.04,0-.07-.01-.1-.01-.18-.02-.37-.02-.55.02-3.14,1.98-5.93,4.92-7.01.78,1.52,1.91,2.84,3.3,3.84h0c.25.19.57.26.88.21.31-.05.59-.22.77-.48.18-.25.25-.57.2-.88-.05-.31-.23-.58-.48-.76-1.34-.97-2.37-2.31-2.95-3.86-.07-.19-.14-.38-.19-.57-.02-.07-.04-.15-.06-.23-.04-.16-.08-.32-.11-.48-.01-.06-.03-.11-.04-.17-.04-.21-.07-.43-.09-.64,0-.06-.01-.12-.02-.19-.02-.23-.03-.45-.03-.68h0c0-4.62,3.76-8.38,8.39-8.38.27,0,.54.02.8.04.08,0,.16.02.23.03.19.02.38.05.56.09.09.02.17.04.25.05.18.04.35.09.52.14.08.02.16.05.24.08,3.44,1.13,5.76,4.34,5.77,7.96,0,.65.53,1.17,1.17,1.17s1.17-.52,1.17-1.17c0-4.15-2.4-7.93-6.15-9.7.8-3.73,4.28-6.26,8.07-5.86,3.8.4,6.68,3.6,6.68,7.42v13.44Z"/>
  <path class="cls-1" d="M30.89,33.11h5.88c.64,0,1.17-.52,1.17-1.17s-.53-1.17-1.17-1.17h-5.88c-.64,0-1.17.52-1.17,1.17s.53,1.17,1.17,1.17Z"/>
  <path class="cls-1" d="M20.11,24.16c-.65,0-1.17.53-1.17,1.17,0,4.29,3.48,7.77,7.77,7.77.64,0,1.17-.52,1.17-1.17s-.53-1.17-1.17-1.17c-3,0-5.43-2.43-5.43-5.43,0-.64-.52-1.17-1.17-1.17h0Z"/>
  <path class="cls-1" d="M29.72,66.42c0,.65.53,1.17,1.17,1.17h5.88c.64,0,1.17-.52,1.17-1.17s-.53-1.17-1.17-1.17h-5.88c-.64,0-1.17.52-1.17,1.17Z"/>
  <path class="cls-1" d="M18.93,73.02c0,.64.52,1.17,1.17,1.17s1.17-.53,1.17-1.17c0-3,2.43-5.43,5.43-5.43.64,0,1.17-.52,1.17-1.17s-.53-1.17-1.17-1.17c-4.29,0-7.77,3.48-7.77,7.77h0Z"/>
  <path class="cls-1" d="M28.62,57.19c-.64,0-1.17.52-1.17,1.17s.53,1.17,1.17,1.17c4.09,0,7.4-3.32,7.4-7.4s-3.31-7.4-7.4-7.4c-.64,0-1.17.52-1.17,1.17s.53,1.17,1.17,1.17c2.79,0,5.06,2.27,5.06,5.06s-2.27,5.06-5.06,5.06h0Z"/>
</svg>