<?xml version="1.0" encoding="UTF-8"?>
<svg xmlns="http://www.w3.org/2000/svg" xmlns:xlink="http://www.w3.org/1999/xlink" version="1.1" viewBox="0 0 86.1 86.6">
  <defs>
    <style>
      .cls-1 {
        fill: url(#New_Gradient_Swatch_1);
      }
    </style>
    <linearGradient id="New_Gradient_Swatch_1" data-name="New Gradient Swatch 1" x1="64.7" y1="0" x2="64.7" y2="86.6" gradientUnits="userSpaceOnUse">
      <stop offset="0" stop-color="#a062f9"/>
      <stop offset="1" stop-color="#1a77da"/>
    </linearGradient>
  </defs>
  <!-- Generator: Adobe Illustrator 28.6.0, SVG Export Plug-In . SVG Version: 1.2.0 Build 709)  -->
  <g>
    <g id="Layer_1">
      <g>
        <path class="cls-1" d="M83.6,51.4l.2-9.5h0c1.4-.5,2.2-1.9,2-3.4-.2-1.5-1.4-2.6-2.9-2.7l-2.9-9.4h0c2.1-1.3,2.9-4.1,1.7-6.3s-3.9-3.1-6.2-2.1l-8.2-10.2c.9-1.2,1.2-2.8.8-4.3-.5-1.5-1.6-2.7-3.1-3.2-1.5-.5-3.1-.3-4.4.7s-2,2.4-2,3.9h0s-6.3,1.6-6.3,1.6h0c-.7-1.1-1.9-1.8-3.2-1.8-1.3,0-2.5.6-3.2,1.7-.7,1.1-.8,2.4-.3,3.6.5,1.2,1.6,2,2.9,2.2l.9,5.5h0c-1.8.8-3,2.6-2.9,4.6,0,2,1.3,3.7,3.2,4.4l-.7,6c-1.5.3-2.7,1.6-2.8,3.1-.2,1.5.7,3,2.1,3.7l-1.8,16.5h0c-1.8.3-3.1,1.8-3.2,3.6,0,1.8,1,3.4,2.8,4v14c-.9.4-1.6,1.2-1.9,2.2s0,2,.7,2.8c.7.8,1.7,1.2,2.7,1.1,1,0,1.9-.7,2.4-1.6l8.9,1.3h0c.2,1.1.8,2,1.7,2.6.9.6,2,.7,3.1.4,1-.3,1.9-1,2.4-2,.5-1,.5-2.1,0-3.1l6.9-5.8h0c2.1,1.5,5.1,1,6.6-1.1s1-5.1-1.1-6.6l3.6-9.1c0,0,.1,0,.2,0h0c1.8,0,3.4-1.3,3.7-3.1s-.7-3.6-2.5-4.2h0ZM82.7,38.1h0c.3,0,.6.2.8.5.1.3,0,.7-.2.9-.2.2-.6.3-.9.2-.3-.1-.5-.4-.5-.8s.4-.8.8-.8h0ZM77.6,19.9h0c1,0,1.9.6,2.2,1.5.4.9.2,1.9-.5,2.6-.7.7-1.7.9-2.6.5-.9-.4-1.5-1.2-1.5-2.2s1.1-2.4,2.4-2.4h0ZM77.6,27c0,0,.2,0,.2,0l2.9,9.4h0c-.2.2-.4.4-.6.6l-11.6-2.8h0c0-.7-.2-1.4-.5-2l6.8-6.1c.8.5,1.7.8,2.7.8h0ZM70.5,48.9h0c.8,0,1.6-.2,2.3-.7l6.1,5c-.1.3-.3.6-.3.9l-8.2,1.6c-.4-.6-.9-1.1-1.5-1.4l1.7-5.4ZM68.7,44.8h0c0-.7.4-1.4,1.1-1.6.7-.3,1.4-.1,1.9.4.5.5.7,1.3.4,1.9-.3.7-.9,1.1-1.6,1.1s-1.8-.8-1.8-1.8h0ZM70.5,40.7h0c-.4,0-.7,0-1.1.2l-2.1-3.4h0c.3-.3.5-.6.7-1l11.6,2.8c0,0,0,.1,0,.2l-6,2.6h0c-.8-.9-1.9-1.5-3.1-1.5h0ZM50.8,58.2l2.9-2.6h0c.6.4,1.2.6,1.8.7l1.2,8.6c-.2.1-.4.2-.7.4l-5.2-4h0c.4-1,.3-2.1-.1-3h0ZM56.4,22.1l5-1.3c.4.6,1,1.1,1.7,1.4l-.2,7.7c-.5.1-.9.3-1.3.5l-5.9-5.7c.4-.7.7-1.6.7-2.4s0,0,0,0h0ZM64.3,20c-.4,0-.8-.3-1-.7-.2-.4,0-.9.2-1.2.3-.3.8-.4,1.2-.2.4.2.7.6.7,1s-.5,1.1-1.1,1.1h0ZM65.4,22.2c.7-.2,1.3-.7,1.8-1.3l5.7,1.4c0,.8.2,1.5.5,2.2l-6.8,6.1h0c-.4-.3-.8-.5-1.3-.6l.2-7.7ZM63.9,32.1c.9,0,1.7.6,2.1,1.4.3.8.2,1.8-.5,2.5-.6.6-1.6.8-2.5.5s-1.4-1.2-1.4-2.1,1-2.3,2.3-2.3h0ZM60.9,37.8l-4.8,9.6h0,0c-.2,0-.3,0-.5,0l-3.4-8.4h0c.6-.5,1-1.3,1.2-2.1l6.3-.9h0c.3.6.7,1.2,1.2,1.7h0ZM59.9,32.1c-.3.5-.5,1.1-.6,1.7l-6.3.9c-.4-.7-1-1.3-1.7-1.6l.7-6c.7,0,1.3-.3,1.9-.7l5.9,5.7ZM53.4,48.3h0c-1.8,1.3-2.3,3.7-1.3,5.6l-2.9,2.6c-.1,0-.3-.1-.4-.2l1.7-15.2,2.9,7.2ZM56.1,54h0c-.9,0-1.6-.5-1.9-1.3-.3-.8-.1-1.7.5-2.3.6-.6,1.5-.8,2.3-.5.8.3,1.3,1.1,1.3,1.9,0,1.2-.9,2.1-2.1,2.1h0ZM59.6,54.5l4,2.4h0c-.2,1,0,2,.6,2.8l-3.8,5.1c-.4-.2-.9-.3-1.4-.3l-1.2-8.5h0c.7-.3,1.3-.8,1.8-1.4h0ZM60.5,52.3c0-.1,0-.3,0-.4h0c0-1.5-.8-3-2.1-3.8l4.6-9.2c.8.2,1.6.1,2.3-.1l2.1,3.4c-.8.9-1.2,2.1-1,3.3.2,1.2.8,2.2,1.8,2.9l-1.8,5.8c-.6.1-1.1.4-1.6.8l-4.4-2.6ZM67.2,56.3h0c.5,0,1,.3,1.2.8s0,1-.3,1.4c-.4.4-.9.5-1.4.3-.5-.2-.8-.7-.8-1.2s.6-1.3,1.3-1.3h0ZM73.8,19.4h0c-.1.2-.3.4-.4.6l-5.7-1.4c-.1-1.4-1.1-2.5-2.4-2.9l-.3-6.2c.2,0,.4-.1.6-.2l8.2,10.2ZM63.6,2.4c1,0,1.9.6,2.3,1.5.4.9.2,2-.5,2.7-.7.7-1.8.9-2.7.5-.9-.4-1.5-1.3-1.5-2.3,0-1.4,1.1-2.5,2.5-2.5h0ZM53,8.8l6.3-1.6h0c.7,1.3,1.9,2.2,3.3,2.4l.3,6.2c-.2,0-.5.2-.7.4l-9.4-6.5c0-.3.1-.6.1-.9h0ZM51.6,11.5l9.4,6.5c0,.1,0,.3,0,.4l-5.1,1.4h0c-.8-1.4-2.2-2.4-3.9-2.5l-.9-5.5c.2-.1.4-.2.6-.4h0ZM49.3,10h0c-.6,0-1.1-.4-1.3-.9-.2-.5,0-1.2.3-1.6.4-.4,1-.5,1.6-.3.5.2.9.8.9,1.3s-.6,1.4-1.4,1.5h0ZM49,22.2c0-1,.6-1.9,1.6-2.3.9-.4,2-.2,2.7.5.7.7.9,1.8.5,2.7-.4.9-1.3,1.6-2.3,1.6-1.4,0-2.5-1.1-2.5-2.5h0ZM49.9,35c.5,0,1,.3,1.2.8s0,1-.3,1.4c-.4.4-.9.5-1.4.3s-.8-.7-.8-1.2c0-.7.6-1.3,1.3-1.3h0ZM47.3,81.4c-.3,0-.6-.2-.8-.5-.1-.3,0-.7.2-.9.2-.2.6-.3.9-.2.3.1.5.4.5.8s-.4.8-.8.8ZM47.2,61.5c-.6,0-1.2-.4-1.5-1-.2-.6-.1-1.3.3-1.7s1.1-.6,1.7-.3c.6.2,1,.8,1,1.5s-.7,1.6-1.6,1.6h0ZM48.5,77.6s0,0,0,0v-14s0,0,0,0c.4-.1.7-.3,1.1-.5l5.1,3.9h0c-.7,1.4-.6,3,.2,4.4l-6.2,6.2ZM59.2,81.1l-8.9-1.3h0c0-.2-.1-.4-.2-.5l6.2-6.2c.7.4,1.5.6,2.3.6h0l1.8,6c-.5.4-1,.9-1.3,1.4h0ZM58.7,71.3h0c-.9,0-1.7-.6-2.1-1.4-.4-.9-.2-1.8.5-2.5.6-.6,1.6-.8,2.5-.5.8.3,1.4,1.2,1.4,2.1,0,1.3-1,2.3-2.3,2.3h0ZM62.6,84.3c-.6,0-1.1-.4-1.3-.9-.2-.5,0-1.2.3-1.6.4-.4,1-.5,1.6-.3.5.2.9.8.9,1.3,0,.8-.7,1.4-1.5,1.4h0ZM64.6,79.6h0c-.6-.4-1.2-.6-1.9-.6l-1.8-6c1-.6,1.7-1.4,2.1-2.5l2,.4,5.9,1.1c0,.6.2,1.2.5,1.8l-6.9,5.8ZM71.4,69.7l-5.9-1.1-2.3-.4c-.1-.8-.5-1.5-.9-2.1l3.8-5.1h0c.3.1.7.2,1,.2,0,0,0,0,.1,0h0c.2,0,.5,0,.7,0l4.4,7.2h0c-.4.4-.7.8-.9,1.3ZM75.7,74.1c-1,0-1.9-.6-2.2-1.5-.4-.9-.2-1.9.5-2.6.7-.7,1.7-.9,2.6-.5.9.4,1.5,1.2,1.5,2.2,0,1.3-1.1,2.4-2.4,2.4h0ZM76.3,67c-.7,0-1.4,0-2,.2l-4.4-7.2h0c.5-.5.8-1.2.9-1.9l8-1.6c.2.5.6,1,1.1,1.4l-3.6,9.1ZM74.3,46.4c.3-.7.4-1.4.3-2.1l6.3-2.8h0c.2.1.4.2.6.3l-.2,9.5c-.2,0-.4.2-.6.3l-6.3-5.2ZM82.3,56.4c-.6,0-1.1-.4-1.3-.9-.2-.5-.1-1.2.3-1.6.4-.4,1-.5,1.6-.3.5.2.9.8.9,1.3s-.6,1.4-1.4,1.4h0Z"/>
        <path d="M32.3,0c-4.5,0-8.5,3.1-9.5,7.5,0,0,0,0-.1,0,0,0-.2,0-.2,0,0,0-.2,0-.3,0,0,0-.2,0-.3,0,0,0-.2,0-.3,0-.1,0-.2,0-.3,0,0,0-.1,0-.2,0-.2,0-.4,0-.6,0h0c-5.9,0-10.7,4.8-10.7,10.7,0,.2,0,.4,0,.7,0,.1,0,.3,0,.4,0,0,0,.2,0,.3,0,.2,0,.3,0,.5,0,0,0,.1,0,.2,0,.2,0,.3.1.5,0,0,0,0,0,.1,0,0,0,0,0,.1h0c-3.8,1.4-6.4,5.1-6.4,9.2,0,.2,0,.4,0,.6,0,0,0,.2,0,.2,0,.1,0,.2,0,.4,0,.1,0,.2,0,.3,0,0,0,.2,0,.3,0,.1,0,.3,0,.4,0,0,0,0,0,.1.2.7.4,1.4.8,2.1C0,37.5-1.4,43.9,1.7,48.8c0,0,0,0,0,0,0,0,0,0,0,0,0,0,.1.2.2.2h0c.3.4.6.8.9,1.1,0,0,0,0,0,0,.1.1.2.2.4.4h0c.1.2.3.3.4.4,0,0,0,0,0,0,.1.1.3.2.4.4,0,0,0,0,0,0h0c-2.1,2.6-2.8,6.1-1.8,9.3,1,3.2,3.7,5.6,6.9,6.4,0,0,0,0,0,0,0,.2,0,.4,0,.6,0,0,0,.1,0,.2,0,.2,0,.5,0,.7h0c0,6.6,5.4,12,12,12,.3,0,.6,0,.9,0,0,0,.1,0,.2,0,.3,0,.6,0,.8-.1,0,0,0,0,0,0h0c1.9,4.2,6.5,6.6,11,5.6,4.5-1,7.8-5,7.8-9.6V9.8C42.1,4.4,37.8,0,32.3,0h0ZM39.8,23.2h-9.9c-3,0-5.4-2.4-5.4-5.4,0-.6-.5-1.2-1.2-1.2s-1.2.5-1.2,1.2c0,4.3,3.5,7.8,7.8,7.8h9.9v13.1h-21.3c-4.3,0-7.8,3.5-7.8,7.8,0,.6.5,1.2,1.2,1.2s1.2-.5,1.2-1.2c0-3,2.4-5.4,5.4-5.4h21.3v35.8c0,3.5-2.4,6.5-5.8,7.3-3.4.8-6.8-.8-8.4-3.9,1.7-.7,3.3-1.7,4.5-3.1.4-.5.4-1.2,0-1.7-.5-.4-1.2-.4-1.7,0-1.3,1.4-3.1,2.5-5,2.9,0,0,0,0-.1,0-.1,0-.2,0-.3,0,0,0-.2,0-.3,0,0,0-.2,0-.3,0-.1,0-.2,0-.4,0,0,0-.1,0-.2,0-.2,0-.4,0-.6,0h0c-5.3,0-9.7-4.3-9.7-9.7,0-.2,0-.4,0-.5,0,0,0,0,0-.1,0-.1,0-.3,0-.4,0,0,0,0,0-.1,0,0,0,0,0,0h0c.6-4.8,4.7-8.4,9.6-8.4.6,0,1.2-.5,1.2-1.2s-.5-1.2-1.2-1.2c-5.1,0-9.7,3.3-11.4,8.1-2.5-.6-4.6-2.6-5.3-5.1s-.1-5.2,1.6-7.2c2.6,1.2,5.6,1.2,8.3.1,2.7-1.1,4.8-3.2,5.8-5.9.1-.3.1-.6,0-.9-.1-.3-.4-.5-.6-.6-.3-.1-.6-.1-.9,0-.3.1-.5.4-.6.7-1.1,2.8-3.6,4.8-6.6,5.2-3,.4-5.9-.8-7.7-3.2h0c0,0-.1-.1-.2-.2,0,0,0,0-.1-.1-1.2-1.8-1.7-4.1-1.2-6.2s1.7-4,3.5-5.3c.9,1,1.9,1.8,3.1,2.4.6.3,1.3,0,1.6-.5.3-.6,0-1.3-.5-1.6-1.7-.8-3-2.3-3.7-4.1h0s0,0,0,0c-.1-.3-.2-.6-.3-1,0,0,0,0,0,0,0-.2,0-.3,0-.5,0,0,0,0,0,0,0-.1,0-.3,0-.4,0,0,0,0,0-.1,0-.2,0-.4,0-.6,0-3.1,2-5.9,4.9-7,.8,1.5,1.9,2.8,3.3,3.8h0c.3.2.6.3.9.2.3,0,.6-.2.8-.5.2-.3.3-.6.2-.9,0-.3-.2-.6-.5-.8-1.3-1-2.4-2.3-3-3.9,0-.2-.1-.4-.2-.6,0,0,0-.2,0-.2,0-.2,0-.3-.1-.5,0,0,0-.1,0-.2,0-.2,0-.4,0-.6,0,0,0-.1,0-.2,0-.2,0-.5,0-.7h0c0-4.6,3.8-8.4,8.4-8.4.3,0,.5,0,.8,0,0,0,.2,0,.2,0,.2,0,.4,0,.6,0,0,0,.2,0,.3,0,.2,0,.4,0,.5.1,0,0,.2,0,.2,0,3.4,1.1,5.8,4.3,5.8,8,0,.6.5,1.2,1.2,1.2s1.2-.5,1.2-1.2c0-4.2-2.4-7.9-6.2-9.7.8-3.7,4.3-6.3,8.1-5.9,3.8.4,6.7,3.6,6.7,7.4v13.4Z"/>
        <path d="M30.9,33.1h5.9c.6,0,1.2-.5,1.2-1.2s-.5-1.2-1.2-1.2h-5.9c-.6,0-1.2.5-1.2,1.2s.5,1.2,1.2,1.2Z"/>
        <path d="M20.1,24.2c-.6,0-1.2.5-1.2,1.2,0,4.3,3.5,7.8,7.8,7.8.6,0,1.2-.5,1.2-1.2s-.5-1.2-1.2-1.2c-3,0-5.4-2.4-5.4-5.4,0-.6-.5-1.2-1.2-1.2h0Z"/>
        <path d="M29.7,66.4c0,.6.5,1.2,1.2,1.2h5.9c.6,0,1.2-.5,1.2-1.2s-.5-1.2-1.2-1.2h-5.9c-.6,0-1.2.5-1.2,1.2Z"/>
        <path d="M18.9,73c0,.6.5,1.2,1.2,1.2s1.2-.5,1.2-1.2c0-3,2.4-5.4,5.4-5.4.6,0,1.2-.5,1.2-1.2s-.5-1.2-1.2-1.2c-4.3,0-7.8,3.5-7.8,7.8h0Z"/>
        <path d="M28.6,57.2c-.6,0-1.2.5-1.2,1.2s.5,1.2,1.2,1.2c4.1,0,7.4-3.3,7.4-7.4s-3.3-7.4-7.4-7.4-1.2.5-1.2,1.2.5,1.2,1.2,1.2c2.8,0,5.1,2.3,5.1,5.1s-2.3,5.1-5.1,5.1h0Z"/>
      </g>
    </g>
  </g>
</svg>