<?xml version="1.0" encoding="UTF-8"?>
<svg xmlns="http://www.w3.org/2000/svg" xmlns:xlink="http://www.w3.org/1999/xlink" viewBox="0 0 76 76">
  <defs>
    <style>
      .cls-1 {
        fill: #f0f0f0;
      }

      .cls-1, .cls-2, .cls-3, .cls-4, .cls-5, .cls-6, .cls-7, .cls-8, .cls-9, .cls-10, .cls-11, .cls-12 {
        fill-rule: evenodd;
      }

      .cls-2 {
        fill: url(#New_Gradient_Swatch_1-7);
      }

      .cls-3 {
        fill: url(#New_Gradient_Swatch_1-8);
      }

      .cls-4 {
        fill: url(#New_Gradient_Swatch_1-4);
      }

      .cls-5 {
        fill: url(#New_Gradient_Swatch_1-5);
      }

      .cls-6 {
        fill: url(#New_Gradient_Swatch_1-9);
      }

      .cls-7 {
        fill: url(#New_Gradient_Swatch_1-3);
      }

      .cls-8 {
        fill: url(#New_Gradient_Swatch_1-6);
      }

      .cls-9 {
        fill: url(#New_Gradient_Swatch_1-2);
      }

      .cls-10 {
        fill: url(#New_Gradient_Swatch_1-11);
      }

      .cls-11 {
        fill: url(#New_Gradient_Swatch_1-10);
      }

      .cls-12 {
        fill: url(#New_Gradient_Swatch_1);
      }
    </style>
    <linearGradient id="New_Gradient_Swatch_1" data-name="New Gradient Swatch 1" x1="8.63" y1="33.28" x2="8.63" y2="52.17" gradientUnits="userSpaceOnUse">
      <stop offset="0" stop-color="#a062f9"/>
      <stop offset="1" stop-color="#1a77da"/>
    </linearGradient>
    <linearGradient id="New_Gradient_Swatch_1-2" data-name="New Gradient Swatch 1" x1="67.31" x2="67.31" xlink:href="#New_Gradient_Swatch_1"/>
    <linearGradient id="New_Gradient_Swatch_1-3" data-name="New Gradient Swatch 1" x1="12.49" y1="36.28" x2="12.49" y2="49.16" xlink:href="#New_Gradient_Swatch_1"/>
    <linearGradient id="New_Gradient_Swatch_1-4" data-name="New Gradient Swatch 1" x1="63.44" y1="36.28" x2="63.44" y2="49.16" xlink:href="#New_Gradient_Swatch_1"/>
    <linearGradient id="New_Gradient_Swatch_1-5" data-name="New Gradient Swatch 1" x1="16.35" y1="39.28" x2="16.35" y2="46.17" xlink:href="#New_Gradient_Swatch_1"/>
    <linearGradient id="New_Gradient_Swatch_1-6" data-name="New Gradient Swatch 1" x1="59.59" y1="39.28" x2="59.59" y2="46.17" xlink:href="#New_Gradient_Swatch_1"/>
    <linearGradient id="New_Gradient_Swatch_1-7" data-name="New Gradient Swatch 1" x1="67.31" x2="67.31" xlink:href="#New_Gradient_Swatch_1"/>
    <linearGradient id="New_Gradient_Swatch_1-8" data-name="New Gradient Swatch 1" x1="12.49" y1="36.28" x2="12.49" y2="49.16" xlink:href="#New_Gradient_Swatch_1"/>
    <linearGradient id="New_Gradient_Swatch_1-9" data-name="New Gradient Swatch 1" x1="63.44" y1="36.28" x2="63.44" y2="49.16" xlink:href="#New_Gradient_Swatch_1"/>
    <linearGradient id="New_Gradient_Swatch_1-10" data-name="New Gradient Swatch 1" x1="16.35" y1="39.28" x2="16.35" y2="46.17" xlink:href="#New_Gradient_Swatch_1"/>
    <linearGradient id="New_Gradient_Swatch_1-11" data-name="New Gradient Swatch 1" x1="59.59" y1="39.28" x2="59.59" y2="46.17" xlink:href="#New_Gradient_Swatch_1"/>
  </defs>
  <g id="Layer_1">
    <path class="cls-1" d="M23.45,33.18c.65-5.3,5.14-9.28,10.48-9.29,2.58-.06,5.45-.06,8.03-.06,5.34,0,9.85,3.96,10.54,9.26,1.14,7.71,1.14,12.93-.03,20.47-.7,5.26-5.18,9.19-10.48,9.19-.11,0-.23,0-.34,0l.85,5.94h2.59c3.26,0,5.9,2.64,5.9,5.9h0c0,1.11-1.18,1.18-1.18,1.18h-23.61s-1.18-.07-1.18-1.18h0c0-3.26,2.64-5.9,5.9-5.9h2.45l.84-5.9h-.13c-5.29,0-9.78-3.89-10.52-9.13-1.15-7.6-1.28-12.83-.1-20.48ZM45.08,71.05h-14.17c-1.54,0-2.85.99-3.34,2.36h20.85c-.49-1.38-1.8-2.36-3.34-2.36ZM35.74,68.69l.84-5.9h2.67l.84,5.9s-4.36,0-4.36,0ZM27.54,56.89c3.49,0,21.16,0,21.16,0-1.5,2.13-3.97,3.5-6.74,3.5h-.02c-2.53.04-5.35.04-7.88.04-2.78,0-5.27-1.38-6.78-3.54,0,0,.25,0,.25,0ZM50.3,34.46l-.15-1.05c-.53-4.12-4.04-7.21-8.2-7.21-2.57,0-5.42,0-7.99.06h-.03c-4.15,0-7.65,3.1-8.15,7.23l-.15.98h4.08c.65,0,1.18.53,1.18,1.18s-.53,1.18-1.18,1.18h-4.38c-.09.81-.16,1.59-.22,2.36h4.6c.65,0,1.18.53,1.18,1.18s-.53,1.18-1.18,1.18h-4.72c-.02.79-.03,1.58-.01,2.36h4.73c.65,0,1.18.53,1.18,1.18s-.53,1.18-1.18,1.18h-4.63c.05.77.11,1.56.19,2.36h4.44c.65,0,1.18.53,1.18,1.18s-.53,1.18-1.18,1.18h-4.17c.1.75.21,1.52.33,2.32,0,0,0,0,0,.01.06.41.15.82.26,1.21h23.7c.12-.42.22-.85.28-1.29,0,0,0-.02,0-.03.12-.76.22-1.51.32-2.23h-10.1c-.65,0-1.18-.53-1.18-1.18s.53-1.18,1.18-1.18h10.37c.08-.8.14-1.59.18-2.36h-10.55c-.65,0-1.18-.53-1.18-1.18s.53-1.18,1.18-1.18h10.62c0-.78,0-1.57-.03-2.36h-10.6c-.65,0-1.18-.53-1.18-1.18s.53-1.18,1.18-1.18h10.47c-.06-.77-.13-1.55-.22-2.36h-10.25c-.65,0-1.18-.53-1.18-1.18s.53-1.18,1.18-1.18h9.95,0ZM9.04,33.75c-1.84,2.44-2.95,5.57-2.95,8.97s1.11,6.53,2.95,8.97c.39.52,1.13.62,1.65.23.52-.39.62-1.13.23-1.65-1.55-2.06-2.47-4.69-2.47-7.55s.93-5.5,2.47-7.56c.39-.52.29-1.26-.23-1.65-.52-.39-1.26-.29-1.65.23ZM65.01,35.17c1.55,2.06,2.47,4.69,2.47,7.56s-.93,5.5-2.47,7.55c-.39.52-.29,1.26.23,1.65.52.39,1.26.29,1.65-.23,1.84-2.44,2.95-5.57,2.95-8.97s-1.11-6.53-2.95-8.97c-.39-.52-1.13-.62-1.65-.23-.52.39-.62,1.13-.23,1.65ZM33.85,50.99h1.18c.65,0,1.18-.53,1.18-1.18s-.53-1.18-1.18-1.18h-1.18c-.65,0-1.18.53-1.18,1.18s.53,1.18,1.18,1.18ZM12.41,36.75c-1.22,1.63-1.96,3.71-1.96,5.97s.74,4.34,1.96,5.97c.39.52,1.13.63,1.65.23.52-.39.63-1.13.23-1.65-.93-1.24-1.49-2.82-1.49-4.55s.56-3.31,1.49-4.55c.39-.52.29-1.26-.23-1.65-.52-.39-1.26-.29-1.65.23ZM61.64,38.17c.93,1.24,1.49,2.82,1.49,4.55s-.56,3.31-1.49,4.55c-.39.52-.29,1.26.23,1.65.52.39,1.26.29,1.65-.23,1.22-1.63,1.96-3.7,1.96-5.97s-.74-4.34-1.96-5.97c-.39-.52-1.13-.62-1.65-.23-.52.39-.62,1.13-.23,1.65ZM33.85,46.26h1.18c.65,0,1.18-.53,1.18-1.18s-.53-1.18-1.18-1.18h-1.18c-.65,0-1.18.53-1.18,1.18s.53,1.18,1.18,1.18ZM15.78,39.75c-1.3,1.72-1.3,4.22,0,5.95.39.52,1.13.63,1.65.23.52-.39.63-1.13.23-1.65-.68-.9-.68-2.21,0-3.11.39-.52.29-1.26-.23-1.65-.52-.39-1.26-.29-1.65.23ZM58.28,41.17c.68.9.68,2.21,0,3.11-.39.52-.29,1.26.23,1.65.52.39,1.26.29,1.65-.23,1.3-1.72,1.3-4.22,0-5.95-.39-.52-1.13-.62-1.65-.23-.52.39-.62,1.13-.23,1.65ZM33.85,41.54h1.18c.65,0,1.18-.53,1.18-1.18s-.53-1.18-1.18-1.18h-1.18c-.65,0-1.18.53-1.18,1.18s.53,1.18,1.18,1.18ZM33.85,36.82h1.18c.65,0,1.18-.53,1.18-1.18s-.53-1.18-1.18-1.18h-1.18c-.65,0-1.18.53-1.18,1.18s.53,1.18,1.18,1.18ZM1.37,17.93h5.9c.52,0,.98-.34,1.13-.83l3.32-10.79,3.81,20.11c.1.54.56.93,1.11.96.55.02,1.04-.33,1.19-.85l3.69-12.85,1.14,3.45c.16.48.61.81,1.12.81h7.13c.53,0,1-.36,1.14-.88l2.2-8.28,2.6,11.78c.12.53.58.91,1.12.93.54.01,1.02-.34,1.17-.86l2.66-9.46,2.19,6c.17.47.61.78,1.11.78h7.13c.51,0,.96-.32,1.12-.81l1.14-3.45,3.69,12.85c.15.52.64.88,1.19.85.55-.03,1-.42,1.1-.96l3.81-20.11,3.32,10.79c.15.5.61.83,1.13.83h5.9c.65,0,1.18-.53,1.18-1.18s-.53-1.18-1.18-1.18h-5.03l-4.47-14.51c-.16-.52-.65-.86-1.19-.83-.54.03-.99.43-1.1.96l-3.78,19.91-3.38-11.76c-.14-.5-.59-.85-1.11-.86s-.98.32-1.14.81l-2.07,6.27h-5.45s-3.16-8.67-3.16-8.67c-.18-.48-.64-.79-1.15-.77-.51.02-.95.37-1.09.86l-2.37,8.45-2.63-11.93c-.12-.53-.58-.91-1.13-.93-.54-.01-1.03.35-1.17.88l-3.21,12.1h-5.37s-2.07-6.27-2.07-6.27c-.16-.49-.63-.82-1.14-.81-.52.01-.97.36-1.11.86l-3.37,11.76L13.15,1.18c-.1-.53-.55-.93-1.09-.96-.54-.03-1.03.31-1.19.83l-4.47,14.51H1.37c-.65,0-1.18.53-1.18,1.18s.53,1.18,1.18,1.18h0Z"/>
  </g>
  <g id="Layer_1_copy_2">
    <path class="cls-12" d="M9.04,33.75c-1.84,2.44-2.95,5.57-2.95,8.97s1.11,6.53,2.95,8.97c.39.52,1.13.62,1.65.23.52-.39.62-1.13.23-1.65-1.55-2.06-2.47-4.69-2.47-7.55s.93-5.5,2.47-7.56c.39-.52.29-1.26-.23-1.65-.52-.39-1.26-.29-1.65.23Z"/>
    <path class="cls-9" d="M65.01,35.17c1.55,2.06,2.47,4.69,2.47,7.56s-.93,5.5-2.47,7.55c-.39.52-.29,1.26.23,1.65.52.39,1.26.29,1.65-.23,1.84-2.44,2.95-5.57,2.95-8.97s-1.11-6.53-2.95-8.97c-.39-.52-1.13-.62-1.65-.23-.52.39-.62,1.13-.23,1.65Z"/>
    <path class="cls-7" d="M12.41,36.75c-1.22,1.63-1.96,3.71-1.96,5.97s.74,4.34,1.96,5.97c.39.52,1.13.63,1.65.23.52-.39.63-1.13.23-1.65-.93-1.24-1.49-2.82-1.49-4.55s.56-3.31,1.49-4.55c.39-.52.29-1.26-.23-1.65-.52-.39-1.26-.29-1.65.23Z"/>
    <path class="cls-4" d="M61.64,38.17c.93,1.24,1.49,2.82,1.49,4.55s-.56,3.31-1.49,4.55c-.39.52-.29,1.26.23,1.65.52.39,1.26.29,1.65-.23,1.22-1.63,1.96-3.7,1.96-5.97s-.74-4.34-1.96-5.97c-.39-.52-1.13-.62-1.65-.23-.52.39-.62,1.13-.23,1.65Z"/>
    <path class="cls-5" d="M15.78,39.75c-1.3,1.72-1.3,4.22,0,5.95.39.52,1.13.63,1.65.23.52-.39.63-1.13.23-1.65-.68-.9-.68-2.21,0-3.11.39-.52.29-1.26-.23-1.65-.52-.39-1.26-.29-1.65.23Z"/>
    <path class="cls-8" d="M58.28,41.17c.68.9.68,2.21,0,3.11-.39.52-.29,1.26.23,1.65.52.39,1.26.29,1.65-.23,1.3-1.72,1.3-4.22,0-5.95-.39-.52-1.13-.62-1.65-.23-.52.39-.62,1.13-.23,1.65Z"/>
    <path class="cls-12" d="M9.04,33.75c-1.84,2.44-2.95,5.57-2.95,8.97s1.11,6.53,2.95,8.97c.39.52,1.13.62,1.65.23.52-.39.62-1.13.23-1.65-1.55-2.06-2.47-4.69-2.47-7.55s.93-5.5,2.47-7.56c.39-.52.29-1.26-.23-1.65-.52-.39-1.26-.29-1.65.23Z"/>
    <path class="cls-2" d="M65.01,35.17c1.55,2.06,2.47,4.69,2.47,7.56s-.93,5.5-2.47,7.55c-.39.52-.29,1.26.23,1.65.52.39,1.26.29,1.65-.23,1.84-2.44,2.95-5.57,2.95-8.97s-1.11-6.53-2.95-8.97c-.39-.52-1.13-.62-1.65-.23-.52.39-.62,1.13-.23,1.65Z"/>
    <path class="cls-3" d="M12.41,36.75c-1.22,1.63-1.96,3.71-1.96,5.97s.74,4.34,1.96,5.97c.39.52,1.13.63,1.65.23.52-.39.63-1.13.23-1.65-.93-1.24-1.49-2.82-1.49-4.55s.56-3.31,1.49-4.55c.39-.52.29-1.26-.23-1.65-.52-.39-1.26-.29-1.65.23Z"/>
    <path class="cls-6" d="M61.64,38.17c.93,1.24,1.49,2.82,1.49,4.55s-.56,3.31-1.49,4.55c-.39.52-.29,1.26.23,1.65.52.39,1.26.29,1.65-.23,1.22-1.63,1.96-3.7,1.96-5.97s-.74-4.34-1.96-5.97c-.39-.52-1.13-.62-1.65-.23-.52.39-.62,1.13-.23,1.65Z"/>
    <path class="cls-11" d="M15.78,39.75c-1.3,1.72-1.3,4.22,0,5.95.39.52,1.13.63,1.65.23.52-.39.63-1.13.23-1.65-.68-.9-.68-2.21,0-3.11.39-.52.29-1.26-.23-1.65-.52-.39-1.26-.29-1.65.23Z"/>
    <path class="cls-10" d="M58.28,41.17c.68.9.68,2.21,0,3.11-.39.52-.29,1.26.23,1.65.52.39,1.26.29,1.65-.23,1.3-1.72,1.3-4.22,0-5.95-.39-.52-1.13-.62-1.65-.23-.52.39-.62,1.13-.23,1.65Z"/>
  </g>
</svg>