<?xml version="1.0" encoding="UTF-8"?>
<svg id="Layer_1" xmlns="http://www.w3.org/2000/svg" xmlns:xlink="http://www.w3.org/1999/xlink" viewBox="0 0 128 128">
  <defs>
    <style>
      .cls-1 {
        fill: url(#New_Gradient_Swatch_1);
      }
    </style>
    <linearGradient id="New_Gradient_Swatch_1" data-name="New Gradient Swatch 1" x1="64" y1="0" x2="64" y2="128" gradientUnits="userSpaceOnUse">
      <stop offset="0" stop-color="#a062f9"/>
      <stop offset="1" stop-color="#1a77da"/>
    </linearGradient>
  </defs>
  <path d="M64,19c-24.86-.01-45.03,20.14-45.04,45s20.14,45.03,45,45.04c24.86.01,45.03-20.14,45.04-45,0-.01,0-.03,0-.04-.03-24.84-20.16-44.97-45-45ZM102.96,51.24c-1.67,1.15-2.74,2.99-2.91,5.01v.1c-.03.23-.08.46-.16.68-.07-.15-.14-.28-.18-.38-.14-.29-.26-.54-.36-.72-1.17-2.06-3.01-3.66-5.22-4.52-1.41-.55-3.77-1.48-5.73-.58-.74.34-3.01,1.38-2.68,3.5.21,1.4,1.48,2.34,3.76,2.81-.15.37-.34.73-.56,1.07-.13.2-.26.42-.4.64-.26.43-.74,1.23-.99,1.31-.12.04-.52-.18-.94-.68-.2-.24-.39-.5-.58-.76-.79-1.29-1.95-2.31-3.33-2.92-1.01-.46-2.19-.36-3.11.27-1.44,1.04-1.36,2.98-1.34,3.61.19,3.31,1.77,6.39,4.35,8.47,1.06.82,2.27,1.42,3.56,1.76.03.01.07.02.11.03-.12.2-.24.39-.35.59-.3.51-.6,1.02-.93,1.5-.4.59-.85,1.17-1.33,1.77-1.27,1.46-2.29,3.11-3.02,4.9-.51,1.57-.8,3.21-.86,4.86-.06,1.05-.2,2.1-.42,3.12-.32.92-.83,1.76-1.49,2.47-1.3,1.48-2.78,2.79-4.4,3.9-.89.64-2.09,1.26-2.78.54-1.18-1.35-1.95-3.01-2.24-4.78-.16-.89-.24-1.8-.24-2.71.02-1.46-.18-2.92-.57-4.33-.18-.52-.41-1.03-.67-1.52-.27-.39-.43-.84-.48-1.31.33-3.3-.91-5.17-2-6.16-2.71-2.45-6.96-1.86-7.9-1.7-1.51.09-2.75-.49-4.46-1.29l-.44-.2c-2.76-1.28-3.47-2.63-3.13-6.01.5-3.83,3.23-7,6.95-8.06,3.43-.88,6.81,0,10.88,1.23,1.13.34,2.94.18,5.56-.11.62-.07,1.38-.15,1.58-.15h0c1.87.23,3.75-.3,5.22-1.48.82-.72,1.33-1.72,1.44-2.81.19-1.8-.43-3.59-1.69-4.89-3.29-3.33-10.46-2.89-16.22-2.54-.91.06-1.98.12-2.93.15.71-.53,1.68-1.22,3.02-2.09l.11-.03c.75-.14,1.42-.54,1.91-1.13,1.06-1.46,1.64-3.22,1.65-5.02v-.02c.09-.72,3.07-1.41,6.11-1.16.05,0,.09,0,.14,0,1.34.07,2.63-.52,3.46-1.59,1.5-2.07.55-5.17.34-5.77-.02-.07-.05-.14-.09-.21.15-.96.58-1.86,1.23-2.59.03-.04.06-.09.08-.13,12.16,4.19,21.67,13.81,25.7,26.03ZM67.5,23.16c-.77,1.52-1.94,2.8-3.38,3.7h0c-2.44.18-4.8.92-6.9,2.17-.04.03-.09.05-.13.08-1.02.72-2.1,1.37-3.22,1.93-1.37.66-2.33.85-2.71.52-.1-.08-.16-.21-.17-.34,0-.16.06-.31.18-.42.76-.57,1.63-.97,2.56-1.17,1.71-.53,4.03-1.24,5.19-3.59.08-.06.18-.13.28-.21,1.05-.68,1.88-1.63,2.42-2.76.79-.05,1.58-.07,2.38-.07,1.18,0,2.34.06,3.5.16ZM39.58,31.08c0,.3-.03.6-.08.89-.55,2.85-2.16,5.84-3.46,6.41-1.53.83-2.96,1.85-4.24,3.02-1.12.93-2.46,2.02-3.75,2.88,2.85-5.18,6.78-9.68,11.53-13.21h0ZM23,64c0-1.46.08-2.93.24-4.38,1.04.05,3.34.54,3.49,1.5-.18,2.16-.15,4.33.09,6.48.38,3.28,2.7,5.24,4.74,6.97,1.7,1.44,3.16,2.68,3.29,4.39-.03,1.04-.26,2.06-.7,3-.31.79-.56,1.6-.76,2.42-.26,2.09-.43,4.2-.48,6.3-6.4-7.42-9.91-16.89-9.91-26.68ZM50.66,102.76c3.59-1.48,9.9-2.82,15.81,2.16-.82.05-1.64.08-2.47.08-4.54,0-9.05-.76-13.34-2.24ZM101.32,81.01c-4.05,8.86-11.11,15.99-19.93,20.13-3.15,1.48-6.47,2.54-9.9,3.17-.06-.1-.14-.2-.22-.3-10.42-11.49-23.11-4.66-25.43-3.27-3.14-1.56-6.07-3.52-8.71-5.82-.33-1.64-.39-3.32-.19-4.97-.03-1.98.2-3.96.68-5.87.56-1.81,1.36-3.47,1.21-5.43-.25-3.38-2.61-5.38-4.7-7.14-1.69-1.43-3.15-2.67-3.35-4.38-.21-1.94-.23-3.9-.06-5.84,0-.08,0-.15,0-.23-.12-3.83-4.15-5.18-6.87-5.42.42-2.04,1-4.04,1.73-5.98,3.03-.45,6.06-2.94,8.76-5.17,2.12-1.74,4.78-2.9,6.38-5.18,1.35-1.99,2.27-4.23,2.71-6.59.25-1.36.2-2.76-.14-4.1,3.8-2.24,7.93-3.84,12.24-4.75-.06.09-.11.18-.15.27-.34.8-1.12,1.12-2.83,1.65-1.57.36-3.03,1.11-4.23,2.18-1.69,1.77-1.68,4.57.04,6.32,3.29,3.43,7.89-.11,10.94-1.86.84-.48,3.37-1.69,5.03-1.57.23.02.46,0,.68-.07.4-.11,3.85-1.24,6.7-7.06.5.1.99.2,1.49.32-.83,1.36-1.78,3.54-.93,5.47.21.63.28,1.3.2,1.97-.04,0-.09,0-.13,0-1.99-.11-3.98.04-5.93.44-1.52.32-2.84,1.25-3.66,2.56-.79,1.37-.5,3.18-1.35,4.46-.09.14-.77.27-.96.37-2.2,1.13-7.83,4.37-6.77,7.57.78,2.37,3.63,2.2,8.8,1.88,4.43-.27,11.12-.67,13.14,1.36.44.46.64,1.1.55,1.74-.1.31-.83.72-2.47.64-.75,0-1.49.07-2.23.17-1.31.19-2.63.28-3.95.26-3.67-1.12-8.24-2.5-13.03-1.28-5.35,1.47-9.28,6.03-9.94,11.54-.5,5.09,1.07,8,5.43,10.02l.43.2c2,1.15,4.27,1.72,6.58,1.65.08,0,.16-.02.23-.03.65-.13,3.34-.39,4.56.72.22.2.9.81.7,2.8,0,1.38.37,2.74,1.06,3.93,1,2.25.47,4.81.98,7.17.44,2.5,1.58,4.83,3.28,6.72.93,1,2.23,1.57,3.6,1.56,1.61-.07,3.15-.65,4.42-1.64,1.92-1.31,3.66-2.87,5.17-4.63,1.28-1.56,2.15-3.4,2.56-5.37.41-2.07.13-4.22.86-6.24,1.13-3.11,3.74-5.53,5.46-8.32.75-.93,1.03-2.16.75-3.33-.31-.88-1.01-1.56-1.89-1.85-.44-.17-.88-.32-1.31-.46-.81-.2-1.57-.55-2.25-1.04-1.43-1.16-2.41-2.78-2.8-4.58.14.18.29.38.44.58.24.33.48.65.73.96,1.5,1.81,3.4,2.51,5.22,1.95,1.42-.58,2.57-1.67,3.22-3.06.11-.18.21-.36.32-.52,1.12-1.73,1.52-3.21,1.21-4.53-.03-.14-.07-.27-.12-.41,1.06.57,1.93,1.42,2.52,2.46.07.12.14.28.23.47.63,1.33,1.8,3.79,4.19,3.5,2.87-.35,3.67-4.26,3.74-5.29.03-.23.08-.46.16-.68,1.7,8.46.69,17.25-2.88,25.1h0Z"/>
  <path d="M95.48,78.37h-.02c-1.1.01-1.99.92-1.98,2.02-.26,1.65-.98,3.18-2.09,4.42-.98,1.42-2.36,2.51-3.96,3.13-1.08.22-1.79,1.27-1.57,2.35.19.94,1.01,1.61,1.96,1.61.13,0,.26-.01.39-.04,2.01-.4,4.37-2.11,6.32-4.57,1.87-2.37,2.98-4.96,2.96-6.94-.01-1.1-.9-1.98-2-1.98Z"/>
  <path class="cls-1" d="M117.97,53.43c.98-.29,2.01-.43,3.03-.43.33,0,.65.02.97.05-4.55-23.83-23.19-42.47-47.02-47.01.03.32.05.64.05.96,0,1.03-.15,2.04-.43,3.03,21.93,4.34,39.07,21.48,43.4,43.41ZM64,14c3.87,0,7-3.13,7-7s-3.13-7-7-7-7,3.13-7,7c0,3.86,3.14,7,7,7ZM64,4c1.66,0,3,1.34,3,3s-1.34,3-3,3-3-1.34-3-3,1.34-3,3-3ZM64,114c-3.87,0-7,3.13-7,7s3.13,7,7,7,7-3.13,7-7h0c0-3.86-3.14-7-7-7ZM64,124c-1.66,0-3-1.34-3-3s1.34-3,3-3,3,1.34,3,3-1.34,3-3,3h0ZM14,64c0-3.87-3.13-7-7-7s-7,3.13-7,7,3.13,7,7,7c3.86,0,7-3.14,7-7ZM4,64c0-1.66,1.34-3,3-3s3,1.34,3,3-1.34,3-3,3-3-1.34-3-3ZM121,57c-3.87,0-7,3.13-7,7s3.13,7,7,7,7-3.13,7-7c0-3.86-3.14-7-7-7ZM121,67c-1.66,0-3-1.34-3-3s1.34-3,3-3,3,1.34,3,3-1.34,3-3,3ZM117.97,74.57c-.82,4.23-2.13,8.34-3.92,12.25-5.43,11.88-14.91,21.45-26.74,27-4.06,1.9-8.35,3.3-12.76,4.15.29.98.43,2,.43,3.03,0,.33-.02.65-.05.97,4.86-.91,9.59-2.43,14.07-4.52,12.69-5.95,22.85-16.22,28.68-28.96,1.97-4.32,3.4-8.86,4.27-13.53-.32.03-.64.05-.97.05-1.02,0-2.04-.15-3.03-.43ZM10.03,53.43C14.37,31.51,31.51,14.37,53.43,10.03c-.29-.98-.43-2-.43-3.03,0-.33.02-.65.05-.96C29.22,10.58,10.58,29.22,6.03,53.05c.32-.03.64-.05.97-.05,1.03,0,2.05.15,3.03.43ZM10.03,74.57c-.98.29-2.01.43-3.03.43-.33,0-.65-.02-.97-.05,4.55,23.83,23.19,42.47,47.02,47.01-.03-.32-.05-.64-.05-.96,0-1.03.15-2.04.43-3.03-21.93-4.34-39.07-21.48-43.4-43.41Z"/>
</svg>