<?xml version="1.0" encoding="UTF-8"?>
<svg xmlns="http://www.w3.org/2000/svg" xmlns:xlink="http://www.w3.org/1999/xlink" version="1.1" viewBox="0 0 90 90">
  <defs>
    <style>
      .cls-1 {
        fill: url(#New_Gradient_Swatch_1);
      }
    </style>
    <linearGradient id="New_Gradient_Swatch_1" data-name="New Gradient Swatch 1" x1="44.6" y1="29.4" x2="44.6" y2="69.8" gradientUnits="userSpaceOnUse">
      <stop offset="0" stop-color="#a062f9"/>
      <stop offset="1" stop-color="#1a77da"/>
    </linearGradient>
  </defs>
  <!-- Generator: Adobe Illustrator 28.6.0, SVG Export Plug-In . SVG Version: 1.2.0 Build 709)  -->
  <g>
    <g id="Layer_1">
      <path d="M44.6,49.2c5.5,0,9.9-4.5,9.9-9.9s-4.5-9.9-9.9-9.9-9.9,4.5-9.9,9.9,4.5,9.9,9.9,9.9ZM44.6,32.1c4,0,7.2,3.2,7.2,7.2s-3.2,7.2-7.2,7.2-7.2-3.2-7.2-7.2,3.2-7.2,7.2-7.2ZM66.8,44.8c-.8,0-1.4.6-1.4,1.4,0,6-2.5,11.5-6.8,15.4-2-5.9-7.6-10.1-14.1-10.1s-12.1,4.1-14.1,10.1c-4.4-3.9-6.8-9.5-6.8-15.4s-.6-1.4-1.4-1.4-1.4.6-1.4,1.4c0,7.4,3.6,14.5,9.5,19,4.1,3.1,9,4.7,14.1,4.7s1.3,0,1.9,0c.7,0,1.4-.2,2.1-.3,3-.5,5.9-1.6,8.5-3.3.5-.3,1.1-.7,1.6-1.1,0,0,0,0,0,0,6-4.4,9.5-11.5,9.5-19,0-.8-.6-1.4-1.4-1.4ZM42.9,67c-.2,0-.4,0-.5,0-.4,0-.7,0-1.1-.1-.2,0-.4,0-.6-.1-.3,0-.6-.1-1-.2-.2,0-.4-.1-.6-.2-.3,0-.6-.2-.9-.3-.2,0-.4-.2-.6-.2-.3-.1-.6-.2-.9-.3-.2,0-.4-.2-.6-.3-.3-.1-.6-.3-.8-.4-.2-.1-.4-.2-.6-.3-.3-.1-.5-.3-.8-.5-.2-.1-.4-.3-.6-.4-.1,0-.2-.2-.4-.3,1.3-5.3,6.2-9.1,11.8-9.1s10.4,3.8,11.8,9.1c-.1,0-.2.2-.4.3-.2.1-.4.3-.6.4-.3.2-.5.3-.8.4-.2.1-.4.2-.6.3-.3.1-.5.3-.8.4-.2,0-.4.2-.7.3-.3.1-.6.2-.9.3-.2,0-.4.2-.7.2-.3,0-.6.2-.9.3-.2,0-.4.1-.7.2-.3,0-.6.1-1,.2-.2,0-.4,0-.6.1-.4,0-.7,0-1.1.1-.2,0-.4,0-.5,0-.5,0-1.1,0-1.6,0s-1.1,0-1.6,0ZM78,21.6l-5.9-.9-2.6-5.3c-.2-.5-.7-.8-1.2-.8s-1,.3-1.2.8l-2.6,5.3-1.1.2c-2.9-2.1-6-3.7-9.4-4.8l4.4-4.3c.4-.4.5-.9.3-1.4-.2-.5-.6-.9-1.1-.9l-8.2-1.2-3.7-7.4c-.2-.5-.7-.8-1.2-.8s-1,.3-1.2.8l-3.7,7.4-8.2,1.2c-.5,0-.9.4-1.1.9-.2.5,0,1,.3,1.4l4.4,4.3c-3.3,1-6.4,2.6-9.2,4.7h-.3s-2.6-5.4-2.6-5.4c-.2-.5-.7-.8-1.2-.8s-1,.3-1.2.8l-2.6,5.3-5.9.9c-.5,0-.9.4-1.1.9-.2.5,0,1,.3,1.4l4.3,4.2-1,5.9c0,.5.1,1,.5,1.3,0,0,0,0,0,0-1.3,3.4-1.9,7-1.9,10.7,0,14.3,9.6,26.8,23.4,30.4.3,1.4-.8,6.6-2.5,11.8-.2.6,0,1.3.6,1.6.2.1.5.2.7.2s.7-.1,1-.4c6.1-5.9,13.3-12.3,14.5-12.8,14.5-3,25.1-15.9,25.1-30.8s-.6-7.2-1.8-10.5c.3,0,.6,0,.8-.3.4-.3.6-.8.5-1.3l-1-5.9,4.3-4.1c.4-.4.5-.9.3-1.4-.2-.5-.6-.9-1.1-.9ZM40.8,10.8c.4,0,.8-.3,1-.8l2.8-5.6,2.8,5.6c.2.4.6.7,1,.8l6.2.9-4.5,4.4c-.3.3-.5.8-.4,1.2l1.1,6.1-5.5-2.9c-.2-.1-.4-.2-.6-.2s-.4,0-.6.2l-5.5,2.9,1.1-6.1c0-.4,0-.9-.4-1.2l-4.5-4.4,6.2-.9ZM15.1,23.9l3.8-.6c.4,0,.8-.3,1-.8l1.7-3.5,1.7,3.5c.2.4.6.7,1,.8l3.8.6-2.8,2.7c-.3.3-.5.8-.4,1.2l.7,3.8-3.4-1.8c-.4-.2-.9-.2-1.3,0l-3.4,1.8.7-3.8c0-.4,0-.9-.4-1.2l-2.8-2.7ZM50.3,74.1c-1.6.3-7.3,5.4-12.2,10,.9-3.6,1.7-7.6.8-9.2-.3-.5-.8-.9-1.3-1-12.8-3.2-21.7-14.6-21.7-27.8s.8-7.7,2.3-11.3c0,0,0-.2,0-.3l3.4-1.8,5.3,2.8c.2.1.4.2.6.2s.6,0,.8-.3c.4-.3.6-.8.5-1.3l-1-5.9,4.3-4.1c.4-.4.5-.9.3-1.4-.2-.5-.6-.9-1.1-.9l-1.5-.2c2-1.2,4.2-2.2,6.5-2.8l-1.2,7.2c0,.5.1,1,.5,1.3.2.2.5.3.8.3s.4,0,.6-.2l7.3-3.9,7.3,3.9c.5.2,1,.2,1.4-.1.4-.3.6-.8.5-1.3l-1.2-7.2c2.3.7,4.6,1.7,6.7,2.9h-.8c-.5.2-.9.6-1.1,1.1-.2.5,0,1,.3,1.4l4.3,4.1-1,5.9c0,.5.1,1,.5,1.3.2.2.5.3.8.3s.4,0,.6-.2l5.3-2.8,2.2,1.2c1.8,3.8,2.8,8,2.8,12.3,0,13.6-9.6,25.4-22.9,28.1ZM72.1,26.6c-.3.3-.5.8-.4,1.2l.7,3.8-3.4-1.8c-.2-.1-.4-.2-.6-.2s-.4,0-.6.2l-3.4,1.8.7-3.8c0-.4,0-.9-.4-1.2l-2.8-2.7,3.8-.6c.4,0,.8-.3,1-.8l1.7-3.5,1.7,3.5c.2.4.6.7,1,.8l3.8.6-2.8,2.7Z"/>
      <path class="cls-1" d="M44.6,49.2c5.5,0,9.9-4.5,9.9-9.9s-4.5-9.9-9.9-9.9-9.9,4.5-9.9,9.9,4.5,9.9,9.9,9.9ZM44.6,32.1c4,0,7.2,3.2,7.2,7.2s-3.2,7.2-7.2,7.2-7.2-3.2-7.2-7.2,3.2-7.2,7.2-7.2ZM66.8,44.8c-.8,0-1.4.6-1.4,1.4,0,6-2.5,11.5-6.8,15.4-2-5.9-7.6-10.1-14.1-10.1s-12.1,4.1-14.1,10.1c-4.4-3.9-6.8-9.5-6.8-15.4s-.6-1.4-1.4-1.4-1.4.6-1.4,1.4c0,7.4,3.6,14.5,9.5,19,4.1,3.1,9,4.7,14.1,4.7s1.3,0,1.9,0c.7,0,1.4-.2,2.1-.3,3-.5,5.9-1.6,8.5-3.3.5-.3,1.1-.7,1.6-1.1,0,0,0,0,0,0,6-4.4,9.5-11.5,9.5-19,0-.8-.6-1.4-1.4-1.4ZM56,63.7c-.2.1-.4.3-.6.4-.3.2-.5.3-.8.4-.2.1-.4.2-.6.3-.3.1-.5.3-.8.4-.2,0-.4.2-.7.3-.3.1-.6.2-.9.3-.2,0-.4.2-.7.2-.3,0-.6.2-.9.3-.2,0-.4.1-.7.2-.3,0-.6.1-1,.2-.2,0-.4,0-.6.1-.4,0-.7,0-1.1.1-.2,0-.4,0-.5,0-.5,0-1.1,0-1.6,0s-1.1,0-1.6,0c-.2,0-.4,0-.5,0-.4,0-.7,0-1.1-.1-.2,0-.4,0-.6-.1-.3,0-.6-.1-1-.2-.2,0-.4-.1-.6-.2-.3,0-.6-.2-.9-.3-.2,0-.4-.2-.6-.2-.3-.1-.6-.2-.9-.3-.2,0-.4-.2-.6-.3-.3-.1-.6-.3-.8-.4-.2-.1-.4-.2-.6-.3-.3-.1-.5-.3-.8-.5-.2-.1-.4-.3-.6-.4-.1,0-.2-.2-.4-.3,1.3-5.3,6.2-9.1,11.8-9.1s10.4,3.8,11.8,9.1c-.1,0-.2.2-.4.3Z"/>
    </g>
  </g>
</svg>